<svg width="157" height="177" viewBox="0 0 157 177" fill="none" xmlns="http://www.w3.org/2000/svg">
<g opacity="0.2">
<path opacity="0.7" fill-rule="evenodd" clip-rule="evenodd" d="M266.509 133.65C213.13 191.928 117.874 186.845 71.6516 138.288C69.9793 136.531 69.1032 134.179 69.0931 131.754L68.9048 86.4273L162.472 121.404L264.497 83.2782L266.509 133.65Z" fill="white"/>
<path fill-rule="evenodd" clip-rule="evenodd" d="M162.474 0L12.6181 56.0246C8.28565 57.6443 8.28614 63.7726 12.6189 65.3916L46.9462 78.2191L47.0142 73.4807C46.7694 71.6291 47.5173 70.2878 49.489 69.4859L160.244 37.8192C164.214 36.4779 168.185 41.2746 164.459 44.2051L55.2137 75.8863C54.2075 76.1488 53.718 76.6882 53.718 78.0149L53.6908 80.7413L68.9068 86.4273L162.474 121.404L264.499 83.2782L324.86 60.7091L162.474 0Z" fill="white"/>
<path opacity="0.7" fill-rule="evenodd" clip-rule="evenodd" d="M164.458 44.2054L55.2122 75.8867C54.2059 76.1491 53.7164 76.6886 53.7164 78.0153L53.6892 80.7417L53.2133 130.195C56.6943 131.522 59.1828 135.517 59.1828 140.051C59.1828 145.897 55.2122 150.432 49.9906 150.432C45.0274 150.432 40.812 145.897 40.812 140.051C40.812 135.779 43.0421 132.062 46.2648 130.458L46.9447 78.2194L47.0126 73.4811C46.7679 71.6295 47.5158 70.2882 49.4875 69.4863L160.242 37.8196C164.213 36.4783 168.183 41.2749 164.458 44.2054Z" fill="white"/>
</g>
</svg>
