<svg width="50" height="50" viewBox="0 0 50 50" fill="none" xmlns="http://www.w3.org/2000/svg">
<g clip-path="url(#clip0_275_4706)">
<path d="M11.5625 34.375L13.0312 29.5563H19.2937L20.7625 34.375H24.7031L18.4406 15.6281H14.1031L7.8125 34.375H11.5625ZM16.2594 19.2125L18.5531 26.7938H13.8L16.0938 19.2125H16.2594ZM31.1313 19.6125C27.8219 19.6125 25.6531 22.0031 25.6531 25.9969V28.1688C25.6531 32.1656 27.7938 34.5531 31.0906 34.5531C33.2063 34.5531 34.9094 33.5219 35.3625 32.0406H35.5406V34.375H39.0969V14.6406H35.4719V22.0156H35.3063C34.7438 20.5313 33.1812 19.6094 31.1313 19.6094V19.6125ZM32.3406 22.4969C34.1531 22.4969 35.4719 23.8719 35.4719 26.0531V27.9344C35.4719 30.3094 34.2344 31.6844 32.3969 31.6844C30.5281 31.6844 29.3594 30.2813 29.3594 27.7844V26.3688C29.3594 23.8844 30.5156 22.4938 32.3406 22.4938V22.4969Z" fill="#B3C7DB"/>
<path d="M43.75 9.375C44.5788 9.375 45.3737 9.70424 45.9597 10.2903C46.5458 10.8763 46.875 11.6712 46.875 12.5V37.5C46.875 38.3288 46.5458 39.1237 45.9597 39.7097C45.3737 40.2958 44.5788 40.625 43.75 40.625H6.25C5.4212 40.625 4.62634 40.2958 4.04029 39.7097C3.45424 39.1237 3.125 38.3288 3.125 37.5V12.5C3.125 11.6712 3.45424 10.8763 4.04029 10.2903C4.62634 9.70424 5.4212 9.375 6.25 9.375H43.75ZM6.25 6.25C4.5924 6.25 3.00269 6.90848 1.83058 8.08058C0.65848 9.25268 0 10.8424 0 12.5L0 37.5C0 39.1576 0.65848 40.7473 1.83058 41.9194C3.00269 43.0915 4.5924 43.75 6.25 43.75H43.75C45.4076 43.75 46.9973 43.0915 48.1694 41.9194C49.3415 40.7473 50 39.1576 50 37.5V12.5C50 10.8424 49.3415 9.25268 48.1694 8.08058C46.9973 6.90848 45.4076 6.25 43.75 6.25H6.25Z" fill="#B3C7DB"/>
</g>
<defs>
<clipPath id="clip0_275_4706">
<rect width="50" height="50" fill="white"/>
</clipPath>
</defs>
</svg>
