<svg width="50" height="50" viewBox="0 0 50 50" fill="none" xmlns="http://www.w3.org/2000/svg">
<path d="M20.8332 25C25.4373 25 29.1665 21.2708 29.1665 16.6667C29.1665 12.0625 25.4373 8.33334 20.8332 8.33334C16.229 8.33334 12.4998 12.0625 12.4998 16.6667C12.4998 21.2708 16.229 25 20.8332 25ZM20.8332 12.5C21.9382 12.5 22.998 12.939 23.7794 13.7204C24.5608 14.5018 24.9998 15.5616 24.9998 16.6667C24.9998 17.7717 24.5608 18.8316 23.7794 19.613C22.998 20.3944 21.9382 20.8333 20.8332 20.8333C18.5207 20.8333 16.6665 18.9792 16.6665 16.6667C16.6665 14.3542 18.5415 12.5 20.8332 12.5ZM24.9998 41.6667H4.1665V35.4167C4.1665 29.8542 15.2707 27.0833 20.8332 27.0833C22.729 27.0833 25.2707 27.4167 27.8123 28.0625C27.6248 28.75 27.4998 29.4792 27.4998 30.2083V32.0625C25.4582 31.4583 23.1248 31.0417 20.8332 31.0417C14.6457 31.0417 8.12484 34.0833 8.12484 35.4167V37.7083H24.9998V41.6667ZM43.3332 35.4167H34.3748V30.2083C34.3748 28.5417 35.8332 27.5 37.4998 27.5C39.1665 27.5 40.6248 28.5417 40.6248 30.2083V31.25H43.3332V30.2083C43.3332 27.2917 40.4165 25 37.4998 25C34.5832 25 31.6665 27.2917 31.6665 30.2083V35.4167C30.4165 35.4167 29.1665 36.6667 29.1665 37.9167V45.2083C29.1665 46.6667 30.4165 47.9167 31.6665 47.9167H43.1248C44.5832 47.9167 45.8332 46.6667 45.8332 45.4167V38.125C45.8332 36.6667 44.5832 35.4167 43.3332 35.4167Z" fill="#B3C7DB"/>
</svg>
