<svg width="50" height="50" viewBox="0 0 50 50" fill="none" xmlns="http://www.w3.org/2000/svg">
<path d="M48.4375 26.5625V23.4375H26.5625V18.75H32.0312C32.6526 18.7493 33.2484 18.5021 33.6878 18.0628C34.1271 17.6234 34.3743 17.0276 34.375 16.4062V3.90625C34.3743 3.28486 34.1271 2.68913 33.6878 2.24974C33.2484 1.81035 32.6526 1.5632 32.0312 1.5625H17.9688C17.3474 1.5632 16.7516 1.81035 16.3122 2.24974C15.8729 2.68913 15.6257 3.28486 15.625 3.90625V16.4062C15.6257 17.0276 15.8729 17.6234 16.3122 18.0628C16.7516 18.5021 17.3474 18.7493 17.9688 18.75H23.4375V23.4375H1.5625V26.5625H9.375V31.25H4.04209C3.42071 31.2507 2.82499 31.4979 2.38561 31.9373C1.94623 32.3766 1.69906 32.9724 1.69834 33.5938V46.0938C1.69906 46.7151 1.94623 47.3108 2.38561 47.7502C2.82499 48.1896 3.42071 48.4368 4.04209 48.4375H17.9688C18.5901 48.4368 19.1859 48.1896 19.6253 47.7503C20.0646 47.3109 20.3118 46.7151 20.3125 46.0938V33.5938C20.3118 32.9724 20.0646 32.3766 19.6253 31.9372C19.1859 31.4979 18.5901 31.2507 17.9688 31.25H12.5V26.5625H37.5V31.25H32.0312C31.4099 31.2507 30.8141 31.4979 30.3747 31.9372C29.9354 32.3766 29.6882 32.9724 29.6875 33.5938V46.0938C29.6882 46.7151 29.9354 47.3109 30.3747 47.7503C30.8141 48.1896 31.4099 48.4368 32.0312 48.4375H46.0938C46.7151 48.4368 47.3109 48.1896 47.7503 47.7503C48.1896 47.3109 48.4368 46.7151 48.4375 46.0938V33.5938C48.4368 32.9724 48.1896 32.3766 47.7503 31.9372C47.3109 31.4979 46.7151 31.2507 46.0938 31.25H40.625V26.5625H48.4375ZM18.75 4.6875H31.25V15.625H18.75V4.6875ZM17.1875 45.3125H4.82334V34.375H17.1875V45.3125ZM45.3125 45.3125H32.8125V34.375H45.3125V45.3125Z" fill="#B3C7DB"/>
</svg>
