<svg width="40" height="53" viewBox="0 0 40 53" fill="none" xmlns="http://www.w3.org/2000/svg">
<path fill-rule="evenodd" clip-rule="evenodd" d="M14.5583 9.37783C16.0429 7.91821 18.0564 7.09821 20.1559 7.09821C22.2554 7.09821 24.269 7.91821 25.7535 9.37783C27.2381 10.8374 28.0721 12.8171 28.0721 14.8813V22.5833C28.0721 23.2998 27.4814 23.8805 26.7528 23.8805C26.0241 23.8805 25.4334 23.2998 25.4334 22.5833V14.8813C25.4334 13.5052 24.8774 12.1854 23.8877 11.2123C22.8979 10.2392 21.5556 9.69257 20.1559 9.69257C18.7563 9.69257 17.4139 10.2392 16.4242 11.2123C15.4345 12.1854 14.8785 13.5052 14.8785 14.8813V22.5833C14.8785 23.2998 14.2878 23.8805 13.5591 23.8805C12.8304 23.8805 12.2397 23.2998 12.2397 22.5833V14.8813C12.2397 12.8171 13.0738 10.8374 14.5583 9.37783Z" fill="#B3C7DB"/>
<path fill-rule="evenodd" clip-rule="evenodd" d="M10.7528 23.9083C9.26898 23.9083 8.0661 25.0946 8.0661 26.5581V41.1322C8.0661 42.5957 9.26898 43.7821 10.7528 43.7821H29.5598C31.0436 43.7821 32.2465 42.5957 32.2465 41.1322V26.5581C32.2465 25.0946 31.0436 23.9083 29.5598 23.9083H10.7528ZM5.37939 26.5581C5.37939 23.6312 7.78515 21.2584 10.7528 21.2584H29.5598C32.5274 21.2584 34.9332 23.6312 34.9332 26.5581V41.1322C34.9332 44.0592 32.5274 46.4319 29.5598 46.4319H10.7528C7.78515 46.4319 5.37939 44.0592 5.37939 41.1322V26.5581Z" fill="#B3C7DB"/>
</svg>
