<svg width="93" height="46" viewBox="0 0 93 46" fill="none" xmlns="http://www.w3.org/2000/svg">
<path d="M19.6772 8.35277C24.5898 8.35277 28.8588 11.1138 31.0125 15.1681C31.1273 15.3848 31.3529 15.5201 31.5982 15.5201H38.3937C38.7322 15.5201 39.0138 15.2662 39.0541 14.9309C39.2503 13.2748 39.3514 11.5894 39.3514 9.88037C39.3514 6.8791 39.0393 3.95038 38.4448 1.12462C35.9556 2.68065 33.0131 3.57976 29.8606 3.57976C26.0105 3.57976 22.4744 2.23943 19.6938 0C16.9132 2.23943 13.3771 3.57976 9.52706 3.57976C6.36086 3.57976 3.40659 2.67281 0.910519 1.10403C0.313974 3.93568 0 6.87126 0 9.88037C0 24.9328 7.84731 38.1537 19.6762 45.6799C26.4835 41.3491 31.9701 35.1328 35.4042 27.7674C35.6082 27.3291 35.2844 26.8261 34.8007 26.8261H31.5973C31.352 26.8261 31.1273 26.9605 31.0125 27.1771C28.8579 31.2324 24.5898 33.9925 19.6762 33.9925C12.6393 33.9925 6.92503 28.3302 6.8485 21.3158C6.77197 14.2406 12.5971 8.35277 19.6772 8.35277Z" fill="white"/>
<path d="M19.5673 28.5351C15.6348 28.4782 12.4078 25.2867 12.3107 21.3579C12.2086 17.2065 15.5455 13.8091 19.6772 13.8091C21.1617 13.8091 22.5441 14.2474 23.7 15.0034C24.2239 15.3455 24.8391 15.5191 25.4641 15.5191H28.3977C28.6205 15.5191 28.7549 15.2701 28.6293 15.0867C26.6807 12.2296 23.3978 10.3529 19.6762 10.3529C13.6961 10.3529 8.84912 15.1965 8.84912 21.1716C8.84912 27.1467 13.6961 31.9913 19.6762 31.9913C23.4537 31.9913 26.7788 30.0578 28.7156 27.1281C28.801 26.9986 28.7088 26.8251 28.5537 26.8251H25.4631C24.8352 26.8251 24.218 27.0035 23.6921 27.3457C22.5088 28.1174 21.091 28.5576 19.5673 28.5351Z" fill="white"/>
<path d="M27.1899 25.6044C27.1899 25.7025 27.1408 25.7505 27.0437 25.7505H25.9576C25.8605 25.7505 25.8114 25.7015 25.8114 25.6044V21.9227L22.5902 16.7173C22.5333 16.6114 22.5696 16.5585 22.7001 16.5585H23.9325C24.0139 16.5585 24.0669 16.583 24.0914 16.632L26.507 20.55L28.9344 16.632C28.9589 16.583 29.0119 16.5585 29.0934 16.5585H30.3257C30.4562 16.5585 30.4925 16.6114 30.4356 16.7173L27.1899 21.9355V25.6044Z" fill="white"/>
<path d="M31.7651 25.7515C31.667 25.7515 31.6189 25.7103 31.6189 25.6299V16.7301C31.6189 16.6163 31.668 16.5594 31.7651 16.5594H33.8756C34.8028 16.5594 35.5249 16.7506 36.041 17.1321C36.5571 17.5144 36.8161 18.0998 36.8161 18.8881C36.8161 19.3754 36.716 19.7921 36.5168 20.1382C36.3177 20.4834 36.0351 20.754 35.6691 20.9491C35.9046 21.0383 36.1106 21.156 36.2853 21.303C36.4599 21.4491 36.6061 21.6158 36.7249 21.8031C36.8426 21.9904 36.9299 22.1874 36.9868 22.3943C37.0437 22.6012 37.0722 22.8071 37.0722 23.0101C37.0722 23.9288 36.771 24.6151 36.1695 25.0701C35.5671 25.525 34.6978 25.7525 33.5587 25.7525H31.7651V25.7515ZM32.9847 21.6423V24.4465H33.5822C34.3632 24.4465 34.9097 24.3229 35.2227 24.0749C35.5357 23.8268 35.6927 23.4876 35.6927 23.0571C35.6927 22.6179 35.522 22.2727 35.1805 22.0208C34.8391 21.7688 34.2611 21.6423 33.4478 21.6423H32.9847ZM33.0092 17.8508V20.3255H33.6675C34.3102 20.3255 34.7655 20.202 35.0343 19.9539C35.3032 19.7058 35.4366 19.3872 35.4366 18.9969C35.4366 18.6557 35.3189 18.3792 35.0824 18.1674C34.8459 17.9566 34.4437 17.8508 33.8746 17.8508H33.0092Z" fill="white"/>
<path d="M39.4387 25.7632C39.2759 25.7632 39.1787 25.7485 39.1463 25.7201C39.114 25.6916 39.0973 25.5877 39.0973 25.4093V16.8869C39.0973 16.7241 39.111 16.629 39.1405 16.6006C39.1689 16.5721 39.2602 16.5574 39.4152 16.5574H43.746C43.8353 16.5574 43.8883 16.5721 43.905 16.6006C43.9216 16.629 43.9295 16.68 43.9295 16.7526V17.6546C43.9295 17.736 43.9177 17.7909 43.8932 17.8193C43.8687 17.8478 43.8196 17.8615 43.747 17.8615H40.4405V20.349H43.5881C43.7097 20.349 43.7715 20.4137 43.7715 20.5441V21.4589C43.7715 21.5971 43.7107 21.6658 43.5881 21.6658H40.4405V24.4454H43.8932C44.007 24.4454 44.0639 24.5151 44.0639 24.6523V25.5671C44.0639 25.6975 44.007 25.7622 43.8932 25.7622H39.4387V25.7632Z" fill="white"/>
<path d="M51.0527 25.7515C50.9635 25.7515 50.9006 25.7456 50.8634 25.7328C50.8271 25.7211 50.7878 25.6858 50.7476 25.6289L48.8814 22.0207H47.4911V25.5926C47.4911 25.6985 47.4381 25.7515 47.3322 25.7515H46.246C46.1479 25.7515 46.0999 25.6985 46.0999 25.5926V16.7045C46.0999 16.6643 46.1136 16.629 46.143 16.6006C46.1715 16.5721 46.2058 16.5574 46.247 16.5574H48.7117C49.6144 16.5574 50.3296 16.7771 50.8585 17.2153C51.3873 17.6546 51.6512 18.337 51.6512 19.2636C51.6512 19.8568 51.5207 20.3588 51.2607 20.7696C51.0007 21.1804 50.6426 21.4912 50.1874 21.702L52.2252 25.5789C52.29 25.6926 52.2419 25.7495 52.079 25.7495H51.0527V25.7515ZM47.4901 17.8389V20.7529H48.4909C49.0276 20.7529 49.4544 20.6372 49.7723 20.4058C50.0892 20.1745 50.2482 19.7901 50.2482 19.2538C50.2482 18.791 50.1246 18.439 49.8763 18.1997C49.6281 17.9605 49.2965 17.8399 48.8824 17.8399H47.4901V17.8389Z" fill="white"/>
<path d="M59.0679 25.7515C59.0022 25.7515 58.9541 25.7397 58.9217 25.7152C58.8893 25.6907 58.8481 25.6378 58.8 25.5564L54.9696 18.9665V25.5564C54.9696 25.6378 54.9578 25.6907 54.9333 25.7152C54.9087 25.7397 54.8558 25.7515 54.7743 25.7515H53.7618C53.697 25.7515 53.648 25.7397 53.6156 25.7152C53.5832 25.6907 53.5665 25.6378 53.5665 25.5564V16.7663C53.5665 16.6683 53.5832 16.6055 53.6156 16.5771C53.648 16.5486 53.7088 16.5349 53.7991 16.5349H54.9215C54.9863 16.5349 55.0353 16.5447 55.0677 16.5653C55.1001 16.5859 55.1413 16.6408 55.1894 16.73L59.0198 23.3071V16.73C59.0198 16.6487 59.0316 16.5957 59.0561 16.5712C59.0806 16.5467 59.1336 16.5349 59.2151 16.5349H60.2276C60.3091 16.5349 60.3601 16.5467 60.3797 16.5712C60.4003 16.5957 60.4101 16.6487 60.4101 16.73V25.5201C60.4101 25.6181 60.3954 25.6809 60.3669 25.7093C60.3385 25.7378 60.2796 25.7515 60.1903 25.7515H59.0679Z" fill="white"/>
<path d="M62.9229 25.7632C62.76 25.7632 62.6629 25.7485 62.6305 25.7201C62.5981 25.6916 62.5814 25.5877 62.5814 25.4093V16.8869C62.5814 16.7241 62.5952 16.629 62.6236 16.6006C62.6521 16.5721 62.7433 16.5574 62.8983 16.5574H67.2292C67.3184 16.5574 67.3714 16.5721 67.3881 16.6006C67.4048 16.629 67.4126 16.68 67.4126 16.7526V17.6546C67.4126 17.736 67.4009 17.7909 67.3763 17.8193C67.3518 17.8478 67.3027 17.8615 67.2301 17.8615H63.9236V20.349H67.0712C67.1929 20.349 67.2547 20.4137 67.2547 20.5441V21.4589C67.2547 21.5971 67.1939 21.6658 67.0712 21.6658H63.9236V24.4454H67.3763C67.4901 24.4454 67.5471 24.5151 67.5471 24.6523V25.5671C67.5471 25.6975 67.4901 25.7622 67.3763 25.7622H62.9229V25.7632Z" fill="white"/>
<path d="M72.4999 17.8389V25.6054C72.4999 25.7034 72.4509 25.7515 72.3537 25.7515H71.2676C71.1695 25.7515 71.1214 25.7024 71.1214 25.6054V17.8389H68.7548C68.7136 17.8389 68.6793 17.8252 68.6508 17.7958C68.6224 17.7674 68.6077 17.7291 68.6077 17.6801V16.7045C68.6077 16.6643 68.6214 16.629 68.6508 16.6006C68.6793 16.5721 68.7136 16.5574 68.7548 16.5574H74.8792C74.9195 16.5574 74.9538 16.5721 74.9832 16.6006C75.0117 16.629 75.0254 16.6633 75.0254 16.7045V17.6801C75.0254 17.786 74.9764 17.8389 74.8792 17.8389H72.4999Z" fill="white"/>
<path d="M77.2087 25.7515H76.0988C75.9929 25.7515 75.9399 25.6986 75.9399 25.5927V16.7173C75.9399 16.6114 75.9929 16.5585 76.0988 16.5585H77.2087C77.3146 16.5585 77.3675 16.6114 77.3675 16.7173V25.5927C77.3666 25.6986 77.3136 25.7515 77.2087 25.7515Z" fill="white"/>
<path d="M85.4198 25.6534C85.1834 25.7181 84.8988 25.7789 84.5662 25.8368C84.2326 25.8936 83.846 25.9221 83.4075 25.9221C82.7157 25.9221 82.0878 25.8083 81.5226 25.5809C80.9575 25.3534 80.4758 25.0298 80.0774 24.6112C79.6791 24.1925 79.37 23.6905 79.1502 23.1051C78.9304 22.5198 78.8206 21.8697 78.8206 21.154C78.8206 20.447 78.9285 19.8009 79.1433 19.2155C79.3592 18.6302 79.6663 18.1282 80.0647 17.7095C80.463 17.2908 80.9448 16.9663 81.5109 16.7339C82.076 16.5025 82.7079 16.3868 83.4085 16.3868C83.7744 16.3868 84.1325 16.4055 84.4818 16.4417C84.8311 16.478 85.149 16.5418 85.4335 16.631C85.5228 16.6555 85.5758 16.6859 85.5925 16.7222C85.6092 16.7584 85.6131 16.8183 85.6043 16.8987L85.5798 17.8007C85.5798 17.9311 85.5591 17.9958 85.5189 17.9958C85.4777 17.9958 85.409 17.9791 85.3119 17.9468C84.7016 17.7595 84.0678 17.6664 83.4085 17.6664C82.9041 17.6664 82.4547 17.7517 82.0603 17.9223C81.6659 18.0929 81.3323 18.3331 81.0595 18.642C80.7868 18.9508 80.5798 19.3185 80.4375 19.745C80.2952 20.1715 80.2236 20.6412 80.2236 21.153C80.2236 21.657 80.3011 22.1227 80.4552 22.5492C80.6092 22.9757 80.827 23.3454 81.1076 23.6591C81.3882 23.9719 81.7218 24.218 82.1084 24.3964C82.495 24.5749 82.9238 24.6651 83.3957 24.6651C83.8186 24.6651 84.1787 24.6465 84.475 24.6102C84.7713 24.5739 85.046 24.5112 85.2981 24.4209C85.4041 24.3807 85.4728 24.368 85.5052 24.3847C85.5376 24.4013 85.5543 24.4376 85.5543 24.4945L85.6033 25.3603C85.6112 25.4495 85.6052 25.5142 85.5846 25.5554C85.564 25.5965 85.5091 25.6289 85.4198 25.6534Z" fill="white"/>
<path d="M91.5313 25.0926C91.3194 25.3201 91.0496 25.5133 90.7199 25.6721C90.3902 25.8309 90.0429 25.9261 89.6769 25.9584C89.4816 25.9751 89.2638 25.9751 89.0244 25.9584C88.784 25.9417 88.5525 25.9153 88.3288 25.879C88.1051 25.8427 87.902 25.8015 87.7185 25.7574C87.536 25.7123 87.4035 25.6701 87.3221 25.629C87.2004 25.5721 87.1269 25.5289 87.1023 25.5005C87.0778 25.4721 87.0739 25.4133 87.0906 25.324L87.1759 24.422C87.1838 24.3573 87.2044 24.3161 87.2368 24.3004C87.2692 24.2837 87.33 24.2965 87.4202 24.3367C87.5183 24.3779 87.6557 24.4239 87.8353 24.4769C88.0139 24.5298 88.213 24.574 88.4328 24.6112C88.6526 24.6485 88.8743 24.67 89.098 24.6779C89.3217 24.6857 89.5229 24.67 89.7024 24.6289C89.9379 24.572 90.1292 24.4965 90.2754 24.4033C90.4216 24.3102 90.5374 24.2004 90.6227 24.0739C90.7081 23.9484 90.767 23.8102 90.7994 23.6592C90.8318 23.5091 90.8484 23.3523 90.8484 23.1895C90.8484 23.0356 90.7483 22.8238 90.5491 22.5551C90.35 22.2865 90.0635 22.0433 89.6887 21.8237C89.2334 21.555 88.839 21.306 88.5054 21.0736C88.1718 20.8422 87.8971 20.6128 87.6822 20.3843C87.4664 20.1569 87.3064 19.9206 87.2005 19.6774C87.0945 19.4333 87.0415 19.1656 87.0415 18.8724C87.0415 18.5391 87.1122 18.2204 87.2554 17.9155C87.3977 17.6105 87.5929 17.3448 87.8411 17.1174C88.0894 16.8899 88.3857 16.7085 88.732 16.5751C89.0774 16.4408 89.4581 16.3741 89.8731 16.3741C90.296 16.3741 90.6434 16.4006 90.9161 16.4536C91.1889 16.5065 91.4224 16.5693 91.6176 16.6428C91.7069 16.6752 91.7619 16.7095 91.7825 16.7467C91.8031 16.783 91.805 16.8301 91.7883 16.8869L91.6294 17.6674C91.6127 17.7566 91.5872 17.8184 91.5499 17.8508C91.5136 17.8831 91.4499 17.8831 91.3606 17.8508C91.2389 17.8106 91.1045 17.7713 90.9583 17.7351C90.8121 17.6988 90.661 17.6684 90.507 17.6439C90.352 17.6194 90.2038 17.6037 90.0615 17.5948C89.9193 17.587 89.7907 17.5909 89.6769 17.6066C89.2216 17.6801 88.9018 17.8282 88.7193 18.0518C88.5358 18.2753 88.4446 18.5577 88.4446 18.8989C88.4446 19.1019 88.5506 19.3274 88.7615 19.5754C88.9725 19.8235 89.2815 20.0696 89.6887 20.3128C90.2008 20.6216 90.6218 20.8981 90.9514 21.1423C91.2811 21.3864 91.5411 21.6197 91.7324 21.8433C91.9238 22.0669 92.0572 22.2924 92.1347 22.5198C92.2122 22.7473 92.2505 22.9954 92.2505 23.263C92.2515 23.9788 92.0111 24.5887 91.5313 25.0926Z" fill="white"/>
</svg>
