<svg width="422" height="209" viewBox="0 0 422 209" fill="none" xmlns="http://www.w3.org/2000/svg">
<path d="M90.0131 38.2097C112.486 38.2097 132.015 50.8402 141.867 69.3866C142.392 70.3779 143.424 70.9968 144.546 70.9968H175.632C177.181 70.9968 178.469 69.8352 178.653 68.3012C179.55 60.7256 180.013 53.0155 180.013 45.1978C180.013 31.4684 178.585 18.071 175.866 5.14457C164.479 12.2626 151.018 16.3756 136.597 16.3756C118.985 16.3756 102.809 10.2443 90.0894 0C77.3695 10.2443 61.1937 16.3756 43.5816 16.3756C29.0978 16.3756 15.5834 12.2268 4.16517 5.05038C1.43627 18.0037 0 31.4326 0 45.1978C0 114.055 35.8975 174.534 90.0086 208.963C121.149 189.151 146.247 160.715 161.956 127.022C162.89 125.017 161.409 122.716 159.196 122.716H144.542C143.42 122.716 142.392 123.331 141.867 124.322C132.01 142.873 112.486 155.499 90.0086 155.499C57.8185 155.499 31.6785 129.596 31.3284 97.5091C30.9784 65.1436 57.6255 38.2097 90.0131 38.2097Z" fill="#60AFFF"/>
<path d="M89.5105 130.534C71.5214 130.274 56.7593 115.674 56.315 97.7018C55.8482 78.7113 71.113 63.17 90.0133 63.17C96.8041 63.17 103.128 65.1749 108.415 68.633C110.812 70.1983 113.626 70.9922 116.485 70.9922H129.905C130.924 70.9922 131.539 69.853 130.965 69.0142C122.051 55.9443 107.033 47.3595 90.0088 47.3595C62.6525 47.3595 40.4802 69.5166 40.4802 96.8496C40.4802 124.183 62.6525 146.344 90.0088 146.344C107.289 146.344 122.5 137.499 131.36 124.097C131.75 123.505 131.328 122.711 130.619 122.711H116.481C113.608 122.711 110.785 123.528 108.379 125.093C102.967 128.623 96.4809 130.637 89.5105 130.534Z" fill="#60AFFF"/>
<path d="M124.38 117.128C124.38 117.576 124.156 117.796 123.711 117.796H118.743C118.299 117.796 118.074 117.572 118.074 117.128V100.286L103.339 76.4734C103.079 75.989 103.245 75.7468 103.842 75.7468H109.479C109.851 75.7468 110.094 75.859 110.206 76.0832L121.256 94.0062L132.36 76.0832C132.473 75.859 132.715 75.7468 133.087 75.7468H138.725C139.322 75.7468 139.488 75.989 139.227 76.4734L124.38 100.344V117.128Z" fill="#60AFFF"/>
<path d="M145.309 117.8C144.86 117.8 144.64 117.612 144.64 117.244V76.5317C144.64 76.0114 144.865 75.7513 145.309 75.7513H154.963C159.205 75.7513 162.508 76.6259 164.869 78.3707C167.23 80.1199 168.415 82.7976 168.415 86.4037C168.415 88.6329 167.957 90.5391 167.046 92.1224C166.135 93.7012 164.842 94.9391 163.168 95.8317C164.245 96.2399 165.188 96.7781 165.987 97.4509C166.786 98.1192 167.454 98.8817 167.998 99.7384C168.536 100.595 168.936 101.497 169.196 102.443C169.456 103.389 169.586 104.331 169.586 105.26C169.586 109.462 168.208 112.602 165.457 114.683C162.701 116.764 158.725 117.805 153.514 117.805H145.309V117.8ZM150.888 99.0028V111.831H153.621C157.194 111.831 159.694 111.265 161.126 110.131C162.558 108.996 163.276 107.444 163.276 105.475C163.276 103.466 162.495 101.887 160.933 100.734C159.371 99.5814 156.727 99.0028 153.007 99.0028H150.888ZM151 81.6584V92.9791H154.012C156.952 92.9791 159.034 92.4139 160.264 91.2792C161.494 90.1444 162.104 88.6867 162.104 86.9016C162.104 85.3407 161.566 84.0759 160.484 83.1071C159.402 82.1428 157.562 81.6584 154.959 81.6584H151Z" fill="#60AFFF"/>
<path d="M180.413 117.854C179.668 117.854 179.223 117.787 179.075 117.657C178.927 117.527 178.851 117.051 178.851 116.235V77.2491C178.851 76.5045 178.914 76.0695 179.048 75.9394C179.179 75.8093 179.596 75.7421 180.305 75.7421H200.117C200.525 75.7421 200.767 75.8093 200.844 75.9394C200.92 76.0695 200.956 76.3027 200.956 76.6346V80.761C200.956 81.1333 200.902 81.3845 200.79 81.5146C200.678 81.6446 200.453 81.7074 200.121 81.7074H184.995V93.0865H199.394C199.951 93.0865 200.233 93.3825 200.233 93.979V98.1638C200.233 98.7962 199.955 99.1101 199.394 99.1101H184.995V111.826H200.79C201.31 111.826 201.571 112.144 201.571 112.772V116.957C201.571 117.553 201.31 117.849 200.79 117.849H180.413V117.854Z" fill="#60AFFF"/>
<path d="M233.541 117.8C233.132 117.8 232.845 117.773 232.674 117.715C232.508 117.661 232.329 117.5 232.145 117.239L223.608 100.734H217.248V117.074C217.248 117.558 217.006 117.8 216.521 117.8H211.552C211.104 117.8 210.884 117.558 210.884 117.074V76.4149C210.884 76.231 210.946 76.0695 211.081 75.9394C211.211 75.8093 211.368 75.7421 211.557 75.7421H222.831C226.961 75.7421 230.233 76.7467 232.652 78.7516C235.071 80.761 236.278 83.8828 236.278 88.1213C236.278 90.8349 235.682 93.1313 234.492 95.0106C233.303 96.8899 231.665 98.3118 229.582 99.2761L238.904 117.011C239.2 117.531 238.98 117.791 238.235 117.791H233.541V117.8ZM217.244 81.6043V94.9344H221.822C224.277 94.9344 226.229 94.4051 227.683 93.3466C229.133 92.2881 229.86 90.5299 229.86 88.0765C229.86 85.9594 229.295 84.3492 228.159 83.2548C227.024 82.1604 225.507 81.6087 223.612 81.6087H217.244V81.6043Z" fill="#60AFFF"/>
<path d="M270.205 117.8C269.905 117.8 269.685 117.747 269.537 117.635C269.388 117.522 269.2 117.28 268.98 116.908L251.458 86.7626V116.908C251.458 117.28 251.404 117.522 251.291 117.635C251.179 117.747 250.937 117.8 250.564 117.8H245.932C245.636 117.8 245.412 117.747 245.264 117.635C245.116 117.522 245.039 117.28 245.039 116.908V76.6978C245.039 76.2492 245.116 75.9622 245.264 75.8321C245.412 75.702 245.69 75.6392 246.103 75.6392H251.238C251.534 75.6392 251.758 75.6841 251.906 75.7783C252.055 75.8725 252.243 76.1236 252.463 76.5318L269.985 106.619V76.5318C269.985 76.1595 270.039 75.9173 270.151 75.8052C270.264 75.693 270.506 75.6392 270.879 75.6392H275.511C275.883 75.6392 276.116 75.693 276.206 75.8052C276.3 75.9173 276.345 76.1595 276.345 76.5318V116.742C276.345 117.19 276.278 117.478 276.148 117.608C276.018 117.738 275.748 117.8 275.34 117.8H270.205Z" fill="#60AFFF"/>
<path d="M287.841 117.854C287.096 117.854 286.652 117.787 286.504 117.657C286.355 117.527 286.279 117.051 286.279 116.235V77.2491C286.279 76.5045 286.342 76.0695 286.472 75.9394C286.602 75.8093 287.02 75.7421 287.729 75.7421H307.54C307.949 75.7421 308.191 75.8093 308.267 75.9394C308.344 76.0695 308.38 76.3027 308.38 76.6346V80.761C308.38 81.1333 308.326 81.3845 308.214 81.5146C308.101 81.6446 307.877 81.7074 307.545 81.7074H292.419V93.0865H306.818C307.374 93.0865 307.657 93.3825 307.657 93.979V98.1638C307.657 98.7962 307.379 99.1101 306.818 99.1101H292.419V111.826H308.214C308.734 111.826 308.994 112.144 308.994 112.772V116.957C308.994 117.553 308.734 117.849 308.214 117.849H287.841V117.854Z" fill="#60AFFF"/>
<path d="M331.651 81.6043V117.132C331.651 117.58 331.426 117.8 330.982 117.8H326.013C325.565 117.8 325.345 117.576 325.345 117.132V81.6043H314.519C314.33 81.6043 314.173 81.5415 314.043 81.4069C313.913 81.2769 313.846 81.1019 313.846 80.8776V76.4149C313.846 76.231 313.908 76.0695 314.043 75.9394C314.173 75.8093 314.33 75.7421 314.519 75.7421H342.535C342.719 75.7421 342.876 75.8093 343.011 75.9394C343.141 76.0695 343.204 76.2265 343.204 76.4149V80.8776C343.204 81.362 342.979 81.6043 342.535 81.6043H331.651Z" fill="#60AFFF"/>
<path d="M353.191 117.8H348.114C347.629 117.8 347.387 117.558 347.387 117.074V76.4734C347.387 75.989 347.629 75.7468 348.114 75.7468H353.191C353.675 75.7468 353.918 75.989 353.918 76.4734V117.074C353.913 117.558 353.671 117.8 353.191 117.8Z" fill="#60AFFF"/>
<path d="M390.753 117.352C389.671 117.648 388.369 117.926 386.848 118.19C385.322 118.451 383.553 118.581 381.547 118.581C378.383 118.581 375.51 118.06 372.925 117.02C370.34 115.979 368.136 114.499 366.314 112.584C364.492 110.669 363.078 108.372 362.072 105.695C361.067 103.017 360.564 100.043 360.564 96.769C360.564 93.5351 361.058 90.5793 362.041 87.9016C363.028 85.2239 364.433 82.9275 366.256 81.0123C368.078 79.0971 370.282 77.6125 372.871 76.5495C375.457 75.491 378.347 74.9617 381.552 74.9617C383.226 74.9617 384.864 75.0469 386.462 75.2129C388.06 75.3789 389.514 75.6704 390.816 76.0786C391.224 76.1907 391.466 76.3297 391.543 76.4957C391.619 76.6616 391.637 76.9352 391.597 77.303L391.484 81.4294C391.484 82.026 391.39 82.322 391.206 82.322C391.018 82.322 390.703 82.2457 390.259 82.0977C387.467 81.2411 384.568 80.815 381.552 80.815C379.245 80.815 377.189 81.2052 375.385 81.9856C373.58 82.766 372.054 83.8649 370.807 85.2778C369.559 86.6906 368.612 88.3726 367.961 90.3237C367.31 92.2747 366.983 94.4232 366.983 96.7645C366.983 99.0699 367.337 101.2 368.042 103.151C368.747 105.103 369.743 106.793 371.027 108.229C372.31 109.66 373.836 110.785 375.605 111.602C377.373 112.418 379.335 112.831 381.494 112.831C383.428 112.831 385.075 112.745 386.431 112.579C387.786 112.413 389.043 112.126 390.196 111.714C390.681 111.53 390.995 111.472 391.143 111.548C391.291 111.624 391.368 111.79 391.368 112.05L391.592 116.011C391.628 116.419 391.601 116.715 391.507 116.903C391.412 117.092 391.161 117.24 390.753 117.352Z" fill="#60AFFF"/>
<path d="M418.71 114.786C417.74 115.827 416.506 116.711 414.998 117.437C413.49 118.164 411.901 118.599 410.227 118.747C409.334 118.823 408.337 118.823 407.242 118.747C406.142 118.671 405.083 118.549 404.06 118.384C403.037 118.218 402.107 118.029 401.268 117.827C400.433 117.621 399.827 117.428 399.455 117.24C398.898 116.98 398.562 116.782 398.45 116.652C398.337 116.522 398.319 116.253 398.396 115.845L398.786 111.718C398.822 111.422 398.916 111.234 399.065 111.162C399.213 111.086 399.491 111.144 399.904 111.328C400.353 111.517 400.981 111.727 401.802 111.97C402.619 112.212 403.53 112.414 404.536 112.584C405.541 112.755 406.555 112.853 407.579 112.889C408.602 112.925 409.522 112.853 410.344 112.665C411.421 112.405 412.296 112.059 412.965 111.633C413.633 111.207 414.163 110.705 414.554 110.126C414.944 109.552 415.214 108.92 415.362 108.229C415.51 107.543 415.586 106.825 415.586 106.08C415.586 105.376 415.128 104.408 414.217 103.179C413.306 101.95 411.995 100.837 410.281 99.8326C408.198 98.6036 406.394 97.4644 404.868 96.4014C403.342 95.3428 402.085 94.2933 401.102 93.2482C400.115 92.2077 399.383 91.1267 398.898 90.0144C398.414 88.8976 398.171 87.6731 398.171 86.332C398.171 84.807 398.495 83.3493 399.15 81.9544C399.801 80.5595 400.694 79.344 401.829 78.3034C402.965 77.2628 404.32 76.4331 405.905 75.8231C407.485 75.2086 409.226 74.9036 411.124 74.9036C413.059 74.9036 414.648 75.0247 415.896 75.2669C417.143 75.5091 418.212 75.7962 419.105 76.1326C419.513 76.2806 419.765 76.4376 419.859 76.608C419.953 76.774 419.962 76.9893 419.886 77.2494L419.159 80.8197C419.082 81.2278 418.966 81.5104 418.795 81.6584C418.629 81.8064 418.337 81.8064 417.929 81.6584C417.372 81.4745 416.757 81.2951 416.089 81.1291C415.42 80.9632 414.729 80.8241 414.024 80.712C413.315 80.5999 412.637 80.5281 411.986 80.4877C411.336 80.4518 410.747 80.4698 410.227 80.5415C408.144 80.8779 406.681 81.5552 405.846 82.5779C405.007 83.6005 404.59 84.8923 404.59 86.4531C404.59 87.3816 405.074 88.4131 406.039 89.5479C407.004 90.6827 408.418 91.8085 410.281 92.9208C412.624 94.3337 414.549 95.5985 416.057 96.7153C417.565 97.8322 418.755 98.8996 419.63 99.9223C420.505 100.945 421.116 101.977 421.47 103.017C421.825 104.058 422 105.192 422 106.417C422.004 109.691 420.905 112.481 418.71 114.786Z" fill="#60AFFF"/>
</svg>
