<svg width="149" height="248" viewBox="0 0 149 248" fill="none" xmlns="http://www.w3.org/2000/svg">
<g opacity="0.2">
<path fill-rule="evenodd" clip-rule="evenodd" d="M80.4669 60.6173H49.6574L10.2651 -28.1376C18.8479 -32.0181 27.9377 -34.9688 37.3686 -37L65.311 26.1076L67.164 30.17L68.8511 34.0403L77.2679 53.0484L78.955 56.9188L80.4669 60.6173Z" fill="white"/>
<path opacity="0.7" fill-rule="evenodd" clip-rule="evenodd" d="M81.3194 92.5396H49.3299C48.325 92.5396 47.311 91.8019 47.145 90.6903L40.7471 68.5496C39.899 65.4169 40.4152 62.0923 42.259 59.5053C44.112 56.9184 46.638 55.443 49.6618 55.443H80.9691C84.0021 55.443 86.694 56.9184 88.547 59.5053C90.4 62.0923 90.907 65.4068 89.8929 68.5496L83.8362 90.6903C83.1632 91.8019 82.4902 92.5396 81.3194 92.5396ZM50.8418 87.3758H79.6323L85.1913 67.0742C85.6984 65.4169 85.5232 63.9416 84.5184 62.6481C83.6702 61.3546 82.4994 60.6169 80.8124 60.6169H49.671C48.325 60.6169 46.9791 61.3546 45.965 62.6481C45.1261 63.9416 44.785 65.4169 45.292 67.0742L50.8418 87.3758Z" fill="white"/>
<path fill-rule="evenodd" clip-rule="evenodd" d="M144.78 146.796C142.456 144.249 141.147 140.823 141.147 137.307C141.147 135.478 141.498 133.618 142.254 131.85C142.853 130.172 143.139 128.444 143.139 126.747C143.139 121.33 140.225 116.187 135.349 113.943C132.998 112.933 131.062 111.174 129.707 108.981C128.361 106.789 127.605 104.161 127.605 101.392C127.605 97.613 126.176 94.1974 123.899 91.7317C121.631 89.266 118.515 87.7401 115.15 87.7401C112.707 87.7401 110.31 86.9115 108.264 85.4361C106.226 83.9506 104.548 81.8285 103.534 79.2516C101.608 73.916 96.9612 70.7127 92.0199 70.7127C90.4803 70.7127 88.9039 71.036 87.3736 71.6929C85.7511 72.3902 84.0732 72.7337 82.4138 72.7337C79.2518 72.7337 76.1727 71.4605 73.7389 68.924C71.2959 66.1552 68.1338 64.7708 64.9625 64.7708C61.782 64.7708 58.583 66.1552 56.0663 68.924C53.7339 71.4706 50.6087 72.8954 47.4006 72.8954C45.7319 72.8954 44.0356 72.5114 42.4223 71.6929C40.892 71.036 39.3156 70.7127 37.776 70.7127C32.8347 70.7127 28.1884 73.916 26.2616 79.2516C25.3398 81.8285 23.7357 83.9506 21.7167 85.4361C19.6978 86.9115 17.2548 87.7401 14.6459 87.7401C11.281 87.7401 8.16499 89.266 5.89714 91.7317C3.62008 94.1974 2.19116 97.613 2.19116 101.392C2.19116 104.07 1.43522 106.698 0.0892601 108.911C-1.26591 111.134 -3.20187 112.933 -5.55269 113.943C-10.3649 116.166 -13.2689 121.199 -13.2689 126.545C-13.2689 128.313 -12.9462 130.112 -12.2825 131.85C-11.674 133.558 -11.379 135.296 -11.379 137.014C-11.379 140.52 -12.6051 143.946 -14.9744 146.796C-17.4174 149.473 -18.6343 152.929 -18.6343 156.385C-18.6343 159.841 -17.4174 163.308 -14.9744 165.986C-12.6051 168.583 -11.2961 172.079 -11.2961 175.666C-11.2961 177.435 -11.6187 179.213 -12.2825 180.921C-12.9462 182.659 -13.2689 184.458 -13.2689 186.226C-13.2689 191.572 -10.3649 196.605 -5.55269 198.828C-3.20187 199.838 -1.26591 201.597 0.0892601 203.789C1.43522 205.982 2.19116 208.61 2.19116 211.379C2.19116 215.158 3.62008 218.574 5.89714 221.039C8.16499 223.505 11.281 225.031 14.6459 225.031C17.1718 225.031 19.6148 225.91 21.6522 227.406C23.6988 228.901 25.3398 231.023 26.2616 233.519C28.1884 238.865 32.8439 242.058 37.776 242.058C39.3248 242.058 40.9012 241.745 42.4223 241.088C44.0449 240.391 45.7319 240.037 47.3913 240.037C50.5534 240.037 53.6325 241.31 56.0663 243.857C58.583 246.626 61.782 248 64.9625 248C68.1338 248 71.2959 246.626 73.7389 243.857C76.062 241.31 79.178 239.876 82.3862 239.876C84.064 239.876 85.7511 240.26 87.3736 241.088C88.8947 241.745 90.4711 242.058 92.0199 242.058C96.952 242.058 101.608 238.865 103.534 233.519C104.548 231.023 106.143 228.901 108.144 227.406C110.144 225.91 112.541 225.031 115.15 225.031C118.515 225.031 121.631 223.505 123.899 221.039C126.176 218.574 127.605 215.158 127.605 211.379C127.605 208.701 128.361 206.073 129.707 203.86C131.062 201.637 132.998 199.838 135.349 198.828C140.225 196.584 143.139 191.441 143.139 186.024C143.139 184.327 142.853 182.599 142.254 180.921C141.562 179.082 141.221 177.202 141.221 175.373C141.221 171.867 142.456 168.522 144.78 165.986C149.656 160.63 149.656 152.141 144.78 146.796ZM64.9809 221.342C32.1525 221.342 5.73121 192.189 5.73121 156.385C5.73121 120.592 32.1525 91.4286 64.9809 91.4286C97.6434 91.4286 124.074 120.592 124.074 156.385C124.074 192.189 97.6434 221.342 64.9809 221.342Z" fill="white"/>
<path opacity="0.7" fill-rule="evenodd" clip-rule="evenodd" d="M124.072 156.385C124.072 192.188 97.6412 221.342 64.9787 221.342C32.1503 221.342 5.729 192.188 5.729 156.385C5.729 120.592 32.1503 91.4282 64.9787 91.4282C97.6412 91.4282 124.072 120.592 124.072 156.385Z" fill="white"/>
<path fill-rule="evenodd" clip-rule="evenodd" d="M120.201 -28.1377L80.8091 60.6172H50.0088L51.6866 56.9287L53.1985 53.0584L61.7813 34.0503L63.4684 30.18L65.3214 26.1177L93.2638 -36.99C102.52 -34.9689 111.609 -32.0182 120.201 -28.1377Z" fill="white"/>
</g>
</svg>
