<svg width="50" height="50" viewBox="0 0 50 50" fill="none" xmlns="http://www.w3.org/2000/svg">
<g clip-path="url(#clip0_275_4700)">
<path d="M36.111 44.4445H33.6943C33.1215 44.0393 32.6401 43.5184 32.2812 42.9155C31.9223 42.3126 31.694 41.6411 31.611 40.9445V39.0695H29.4998V40.9722C29.5417 42.2392 29.9951 43.4582 30.7915 44.4445H19.2082C20.0103 43.4506 20.464 42.2211 20.4998 40.9445V39.0695H18.3887V40.9722C18.302 41.664 18.0719 42.3302 17.7132 42.928C17.3545 43.5259 16.875 44.0424 16.3054 44.4445H13.8054C13.437 44.4445 13.0838 44.5908 12.8233 44.8513C12.5628 45.1117 12.4165 45.465 12.4165 45.8333C12.4165 46.2017 12.5628 46.555 12.8233 46.8154C13.0838 47.0759 13.437 47.2222 13.8054 47.2222H36.1943C36.3809 47.2393 36.5691 47.2151 36.7453 47.1514C36.9216 47.0876 37.0817 46.9858 37.2142 46.8533C37.3468 46.7208 37.4485 46.5607 37.5123 46.3844C37.5761 46.2081 37.6003 46.02 37.5832 45.8333C37.5835 45.6437 37.545 45.456 37.4701 45.2819C37.3951 45.1077 37.2853 44.9507 37.1474 44.8206C37.0094 44.6905 36.8463 44.59 36.6681 44.5253C36.4898 44.4606 36.3002 44.4331 36.111 44.4445Z" fill="#B3C7DB"/>
<path d="M8.47217 31.9445H10.6944V12.1667H31.9444C31.6632 11.4505 31.4629 10.7051 31.3472 9.94446H8.47217V31.9445Z" fill="#B3C7DB"/>
<path d="M44.4445 18.3611V34.7222H5.55561V6.94446H31.3473C31.4711 5.98745 31.7283 5.05246 32.1112 4.16669H4.86117C4.30863 4.16669 3.77873 4.38618 3.38803 4.77688C2.99733 5.16758 2.77783 5.69749 2.77783 6.25002V35.4167C2.77783 35.9692 2.99733 36.4991 3.38803 36.8898C3.77873 37.2805 4.30863 37.5 4.86117 37.5H45.1389C45.6915 37.5 46.2214 37.2805 46.6121 36.8898C47.0028 36.4991 47.2223 35.9692 47.2223 35.4167V17.1389C46.3615 17.6806 45.4255 18.0925 44.4445 18.3611Z" fill="#B3C7DB"/>
<path d="M41.6666 15.2778C45.5019 15.2778 48.6111 12.1687 48.6111 8.33336C48.6111 4.49805 45.5019 1.38892 41.6666 1.38892C37.8313 1.38892 34.7222 4.49805 34.7222 8.33336C34.7222 12.1687 37.8313 15.2778 41.6666 15.2778Z" fill="#B3C7DB"/>
</g>
<defs>
<clipPath id="clip0_275_4700">
<rect width="50" height="50" fill="white"/>
</clipPath>
</defs>
</svg>
