<svg width="334" height="334" viewBox="0 0 334 334" fill="none" xmlns="http://www.w3.org/2000/svg">
<path d="M168.172 333.517C168.172 333.678 168.172 333.839 168.011 334C167.368 334 166.725 334 166.082 334C159.006 330.141 151.77 326.924 145.016 322.743C123.468 309.236 104.815 292.673 88.7343 272.894C59.1461 236.552 41.2967 194.742 31.3267 149.395C27.6282 132.993 25.3769 116.43 23.9297 99.8669C22.3216 82.3391 22 64.8113 22 47.2835C22 45.193 23.1256 44.5498 24.5729 43.7458C54.4827 27.1828 85.8398 14.1575 119.287 6.27805C135.046 2.57952 151.127 -0.154177 167.368 0.489045C167.368 26.2179 167.368 51.9468 167.207 77.5149C167.207 79.7662 168.172 80.5702 169.941 81.0527C161.74 81.0527 153.539 81.2135 145.338 82.6607C117.036 87.3241 92.4329 99.7061 71.6889 119.324C65.2567 125.435 59.1461 132.028 54.1611 139.425C52.7139 141.516 52.5531 143.606 54.0003 145.697C55.4476 147.787 57.538 148.109 59.7893 147.787C61.5582 147.465 62.523 146.179 63.4878 144.893C73.297 131.385 85.3574 120.45 99.1867 111.606C118.483 99.2237 139.871 92.9523 162.705 91.9874C166.725 91.8266 170.745 91.3442 174.605 92.3091C173.479 92.3091 172.192 92.6307 171.067 92.4699C168.012 91.9874 167.207 93.2739 167.368 96.1684C167.529 101.797 167.529 107.425 167.529 113.053C163.509 113.375 159.489 113.214 155.469 113.696C124.755 117.556 100.956 132.993 82.7845 157.596C80.5332 160.651 81.0156 163.868 83.5885 165.636C86.1614 167.566 89.3775 166.601 91.7896 163.546C107.87 141.998 128.775 128.169 155.79 124.47C161.258 123.666 166.725 122.701 172.192 124.149C167.529 124.47 167.529 124.47 167.529 129.294C167.529 132.671 167.69 136.048 167.529 139.264C167.368 141.516 168.172 142.641 170.263 143.124C163.348 143.124 156.594 143.445 150.001 145.214C132.152 149.877 118.001 159.847 106.905 174.32C105.458 176.25 104.976 178.501 106.423 180.752C107.709 183.003 109.961 183.486 112.373 183.003C114.302 182.682 115.428 180.913 116.554 179.466C125.72 168.049 136.976 159.847 151.288 155.988C158.202 154.219 165.278 152.933 172.353 154.219C167.69 154.541 167.69 154.541 167.69 159.365C167.69 166.44 167.529 173.516 167.529 180.752C166.082 180.913 164.795 181.074 163.348 181.235C153.378 182.682 145.338 187.345 139.227 195.064C136.494 198.441 138.423 203.104 142.604 203.747C145.016 204.069 146.624 202.783 148.232 201.014C153.539 195.225 159.81 191.526 167.851 191.687C167.851 196.672 167.851 201.496 167.851 206.481C167.851 207.767 167.851 209.054 169.137 209.858C159.328 210.501 152.413 216.773 152.092 225.617C151.77 234.783 158.042 241.537 167.69 242.662C167.69 272.09 167.69 301.517 167.69 330.945C167.368 331.427 167.047 332.713 168.172 333.517Z" fill="#3EB5FE"/>
<path d="M168.172 333.518C167.047 332.714 167.368 331.588 167.368 330.462C167.368 301.035 167.368 271.607 167.368 242.18C178.625 242.341 184.574 233.175 184.574 226.099C184.574 216.934 178.303 210.18 168.655 209.376C167.368 208.572 167.207 207.446 167.368 205.999C167.368 201.014 167.368 196.19 167.368 191.205C168.976 191.044 170.584 191.205 172.192 191.526C178.946 192.813 184.092 196.833 188.755 201.657C191.167 204.23 194.384 204.391 196.635 202.461C198.886 200.371 199.047 196.994 196.635 194.26C190.524 187.345 182.966 182.682 173.8 180.752C171.549 180.27 169.298 181.235 167.047 180.109C167.047 173.034 167.207 165.958 167.207 158.722C167.207 153.898 167.207 153.898 171.871 153.576C190.363 155.023 205.157 163.707 217.057 177.697C218.344 179.144 219.308 180.913 220.756 182.2C222.846 184.129 225.258 184.29 227.509 182.36C229.6 180.591 230.243 178.34 228.957 175.606C228.474 174.802 227.992 174.159 227.509 173.516C212.876 154.702 193.74 144.089 169.78 142.481C167.851 141.998 166.886 141.033 167.047 138.621C167.368 135.244 167.047 132.028 167.047 128.651C167.047 123.827 167.047 123.827 171.71 123.505C175.087 123.345 178.464 123.988 181.68 124.47C206.766 129.294 226.866 142.159 241.982 162.742C244.876 166.601 247.932 167.727 250.665 165.637C253.56 163.546 253.56 160.491 250.665 156.31C244.555 147.948 237.479 140.551 229.278 134.119C210.946 120.129 190.363 112.731 167.207 112.249C167.207 106.621 167.368 100.993 167.047 95.3645C166.886 92.47 167.69 91.1835 170.745 91.6659C171.871 91.8267 173.157 91.6659 174.283 91.5051C186.986 91.9875 199.368 94.7212 211.429 99.2238C235.871 108.39 255.65 123.827 270.927 145.053C273.5 148.591 276.555 149.395 279.128 147.465C281.862 145.375 282.023 142.159 279.61 138.943C272.213 128.651 263.691 119.485 253.882 111.445C229.278 91.6659 201.137 81.5352 169.619 80.5704C167.851 80.0879 166.886 79.2839 166.886 77.0326C167.047 51.3037 167.047 25.5748 167.047 0.00673159C184.574 -0.154074 201.62 2.57962 218.504 6.76057C250.505 14.8008 280.736 27.3437 309.681 43.2634C311.289 44.0675 312.254 45.0323 312.415 47.1228C312.736 92.6308 306.947 137.335 291.51 180.431C271.57 236.23 238.927 282.703 191.167 318.402C184.092 324.191 176.373 329.337 168.172 333.518Z" fill="#2A82DC"/>
<path d="M169.941 81.053C201.459 82.1786 229.6 92.1486 254.204 111.928C264.013 119.968 272.535 129.134 279.932 139.425C282.345 142.802 282.023 146.018 279.45 147.948C276.877 149.878 273.661 149.074 271.249 145.536C255.972 124.31 236.354 108.872 211.751 99.7064C199.851 95.2039 187.469 92.4702 174.605 91.9878C170.585 90.8621 166.565 91.5053 162.705 91.6661C139.871 92.631 118.484 98.9024 99.187 111.284C85.1969 120.129 73.1364 131.064 63.4881 144.571C62.5232 145.858 61.5584 147.305 59.7896 147.466C57.5383 147.787 55.4478 147.466 54.0006 145.375C52.5533 143.124 52.7141 141.033 54.1614 139.104C59.1464 131.707 65.257 125.114 71.6892 119.003C92.5939 99.3848 117.197 87.1636 145.338 82.3394C153.539 81.2138 161.74 81.053 169.941 81.053Z" fill="#DEE7F3"/>
<path d="M167.368 112.892C190.524 113.375 211.107 120.772 229.439 134.762C237.64 141.033 244.876 148.43 250.826 156.953C253.882 161.134 253.882 164.189 250.826 166.28C248.093 168.209 245.037 167.244 242.143 163.385C227.188 142.802 207.087 129.938 182.001 125.113C178.785 124.47 175.408 123.988 172.031 124.149C166.564 122.862 160.936 123.827 155.629 124.47C128.775 128.329 107.87 141.998 91.6287 163.546C89.3774 166.601 86.1613 167.405 83.4276 165.636C80.8547 163.868 80.3723 160.651 82.6236 157.596C100.795 132.993 124.594 117.556 155.308 113.696C159.328 113.053 163.348 113.214 167.368 112.892Z" fill="#DEE7F3"/>
<path d="M169.942 142.963C193.902 144.41 213.038 155.184 227.671 173.999C228.153 174.642 228.796 175.446 229.118 176.089C230.565 178.662 229.761 180.913 227.671 182.843C225.42 184.773 223.008 184.612 220.917 182.682C219.47 181.396 218.505 179.627 217.218 178.18C205.319 164.189 190.525 155.667 172.032 154.059C164.796 152.772 157.72 154.059 150.967 155.828C136.655 159.687 125.399 167.888 116.233 179.305C115.107 180.752 114.142 182.361 112.052 182.843C109.64 183.325 107.549 182.843 106.102 180.592C104.815 178.34 105.137 176.25 106.584 174.159C117.68 159.526 131.831 149.717 149.68 145.054C156.273 143.285 163.188 142.963 169.942 142.963Z" fill="#DEE7F3"/>
<path d="M168.654 209.375C178.303 210.18 184.413 216.933 184.574 226.099C184.574 233.175 178.624 242.341 167.368 242.18C157.719 240.893 151.448 234.14 151.77 225.134C151.93 216.29 158.845 210.019 168.654 209.375ZM167.207 231.245C171.066 231.567 173.8 229.315 173.8 225.938C173.8 222.562 171.549 220.632 167.368 220.793C164.312 220.793 163.026 222.722 162.704 225.456C162.383 228.511 163.991 230.602 167.207 231.245Z" fill="#DEE7F3"/>
<path d="M167.207 180.431C169.298 181.556 171.71 180.591 173.961 181.074C183.127 183.003 190.524 187.667 196.796 194.581C199.208 197.315 199.047 200.692 196.796 202.783C194.705 204.712 191.328 204.551 188.916 201.979C184.253 197.154 179.107 193.134 172.353 191.848C170.745 191.526 169.137 191.365 167.529 191.526C159.489 191.365 153.217 195.064 147.911 200.853C146.463 202.461 144.695 203.908 142.282 203.587C138.102 202.943 136.172 198.28 138.906 194.903C145.016 187.024 153.217 182.36 163.026 181.074C164.313 180.591 165.76 180.591 167.207 180.431Z" fill="#DEE7F3"/>
<path d="M167.369 220.632C171.55 220.471 173.962 222.401 173.801 225.778C173.801 229.155 171.067 231.406 167.208 231.084C167.208 227.707 167.369 224.17 167.369 220.632Z" fill="#60AFFF"/>
<path d="M167.368 220.632C167.368 224.17 167.207 227.707 167.207 231.245C163.991 230.602 162.383 228.511 162.704 225.295C163.026 222.562 164.312 220.632 167.368 220.632Z" fill="#41B6FE"/>
</svg>
