<svg width="40" height="45" viewBox="0 0 40 45" fill="none" xmlns="http://www.w3.org/2000/svg">
<path fill-rule="evenodd" clip-rule="evenodd" d="M32.5 4.98866H7.5C6.83696 4.98866 6.20107 5.25146 5.73223 5.71924C5.26339 6.18701 5 6.82146 5 7.48299V37.415C5 38.0765 5.26339 38.7109 5.73223 39.1787C6.20107 39.6465 6.83696 39.9093 7.5 39.9093H32.5C33.163 39.9093 33.7989 39.6465 34.2678 39.1787C34.7366 38.7109 35 38.0765 35 37.415V7.48299C35 6.82146 34.7366 6.18701 34.2678 5.71924C33.7989 5.25146 33.163 4.98866 32.5 4.98866ZM7.5 0C5.51088 0 3.60322 0.788385 2.1967 2.19172C0.790177 3.59505 0 5.49838 0 7.48299V37.415C0 39.3996 0.790177 41.3029 2.1967 42.7062C3.60322 44.1096 5.51088 44.898 7.5 44.898H32.5C34.4891 44.898 36.3968 44.1096 37.8033 42.7062C39.2098 41.3029 40 39.3996 40 37.415V7.48299C40 5.49838 39.2098 3.59505 37.8033 2.19172C36.3968 0.788385 34.4891 0 32.5 0H7.5Z" fill="#B3C7DB"/>
<path d="M10.6121 9.79626H30.2039V14.8575H10.6121V9.79626ZM10.6121 19.9187H30.2039V24.9799H10.6121V19.9187ZM10.6121 30.0412H22.857V35.1024H10.6121V30.0412Z" fill="#B3C7DB"/>
</svg>
