<svg width="40" height="40" viewBox="0 0 40 40" fill="none" xmlns="http://www.w3.org/2000/svg">
<path d="M11.5251 3.58322H36.2459C37.2415 3.58322 38.1964 3.9806 38.9004 4.68795C39.6045 5.3953 40 6.35468 40 7.35502V29.9859C40 30.6271 39.8311 31.2306 39.5683 31.7586L36.2459 28.4206V11.1268H19.0333L11.5251 3.58322ZM37.1656 40L30.9338 33.7577H6.21305C5.21739 33.7577 4.26252 33.3603 3.55849 32.6529C2.85446 31.9456 2.45894 30.9862 2.45894 29.9859V7.35502C2.45894 6.71381 2.6091 6.11033 2.89066 5.58227L0 2.65912L2.64664 0L39.8123 37.3409L37.1656 40ZM27.1797 29.9859L8.4092 11.1268H6.21305V29.9859H27.1797Z" fill="#B3C7DB"/>
</svg>
