<svg width="40" height="39" viewBox="0 0 40 39" fill="none" xmlns="http://www.w3.org/2000/svg">
<path d="M40 7.97101C40 7.09056 39.2863 6.37681 38.4058 6.37681H37.1118C36.3354 2.71014 33.2298 0 29.5031 0C25.7764 0 22.6708 2.71014 21.8944 6.37681H1.5942C0.71375 6.37681 0 7.09056 0 7.97101C0 8.85147 0.713749 9.56522 1.5942 9.56522H21.8944C22.6708 13.2319 25.7764 15.942 29.5031 15.942C33.2298 15.942 36.3354 13.2319 37.1118 9.56522H38.4058C39.2863 9.56522 40 8.85147 40 7.97101ZM29.5031 12.7536C26.8634 12.7536 24.8447 10.6812 24.8447 7.97101C24.8447 5.26087 26.8634 3.18841 29.5031 3.18841C32.1429 3.18841 34.1615 5.26087 34.1615 7.97101C34.1615 10.6812 32.1429 12.7536 29.5031 12.7536ZM0 30.2899C0 31.1703 0.713749 31.8841 1.5942 31.8841H6.36646C7.14286 35.5507 10.2484 38.2609 13.9752 38.2609C17.7019 38.2609 20.8075 35.5507 21.5839 31.8841H38.4058C39.2863 31.8841 40 31.1703 40 30.2899C40 29.4094 39.2863 28.6957 38.4058 28.6957H21.5839C20.8075 25.029 17.7019 22.3188 13.9752 22.3188C10.2484 22.3188 7.14286 25.029 6.36646 28.6957H1.5942C0.71375 28.6957 0 29.4094 0 30.2899ZM13.9752 25.5072C16.6149 25.5072 18.6335 27.5797 18.6335 30.2899C18.6335 33 16.6149 35.0725 13.9752 35.0725C11.3354 35.0725 9.31677 33 9.31677 30.2899C9.31677 27.5797 11.3354 25.5072 13.9752 25.5072Z" fill="#B3C7DB"/>
</svg>
