<svg width="40" height="20" viewBox="0 0 40 20" fill="none" xmlns="http://www.w3.org/2000/svg">
<path d="M17.1429 19.7101H14.2857V0H22.8571C23.6149 0 24.3416 0.296658 24.8774 0.82471C25.4133 1.35276 25.7143 2.06896 25.7143 2.81574V9.85507C25.7143 10.6019 25.4133 11.318 24.8774 11.8461C24.3416 12.3742 23.6149 12.6708 22.8571 12.6708H17.1429V19.7101ZM17.1429 9.85507H22.8571V2.81574H17.1429V9.85507ZM37.1429 14.0787L31.8857 0H28.5714V19.7101H31.4286V5.63147L36.6857 19.7101H40V0H37.1429V14.0787ZM8.57143 0L5.71429 18.3023L2.85714 0H0L3.6 19.7101H7.82857L11.4286 0H8.57143Z" fill="#B3C7DB"/>
</svg>
