<svg width="40" height="40" viewBox="0 0 40 40" fill="none" xmlns="http://www.w3.org/2000/svg">
<path fill-rule="evenodd" clip-rule="evenodd" d="M20 4.04854C11.2093 4.04854 4.08263 11.1157 4.08263 19.8331L4.08263 19.8362C4.07711 23.3207 5.24014 26.708 7.38869 29.4651C8.07805 30.3497 7.91372 31.621 7.02166 32.3046C6.1296 32.9883 4.8476 32.8253 4.15825 31.9407C1.45622 28.4733 -0.00656661 24.2135 2.21609e-05 19.8315C0.000889001 8.87892 8.95507 0 20 0C31.0455 0 40 8.87978 40 19.8331C40 24.3888 38.449 28.5905 35.8426 31.9396C35.1538 32.8247 33.8719 32.9885 32.9794 32.3054C32.0869 31.6224 31.9217 30.3512 32.6105 29.4662C34.6848 26.8008 35.9174 23.4629 35.9174 19.8331C35.9174 11.1157 28.7907 4.04854 20 4.04854ZM2.21609e-05 19.8315C2.29721e-05 19.8309 2.39184e-05 19.8304 2.47295e-05 19.8299L2.04133 19.8331H2.21609e-05C2.21609e-05 19.8325 2.21609e-05 19.832 2.21609e-05 19.8315Z" fill="#B3C7DB"/>
<path fill-rule="evenodd" clip-rule="evenodd" d="M20.0002 10.6327C14.8217 10.6327 10.6237 14.84 10.6237 20.03L10.6237 20.0334C10.6206 21.8682 11.1565 23.6632 12.1646 25.1947C12.7847 26.1368 12.5254 27.4043 11.5854 28.0258C10.6453 28.6473 9.38062 28.3874 8.76051 27.4453C7.31152 25.2439 6.54122 22.6637 6.54567 20.0265L8.5847 20.03H6.54567C6.54567 20.0288 6.54567 20.0277 6.54567 20.0265C6.54754 12.5809 12.5706 6.54559 20.0002 6.54559C27.431 6.54559 33.4547 12.5828 33.4547 20.03C33.4547 22.7652 32.6404 25.3158 31.2403 27.4446C30.6206 28.387 29.356 28.6474 28.4157 28.0263C27.4755 27.4051 27.2156 26.1377 27.8354 25.1954C28.8098 23.7137 29.3767 21.9414 29.3767 20.03C29.3767 14.84 25.1787 10.6327 20.0002 10.6327Z" fill="#B3C7DB"/>
<path fill-rule="evenodd" clip-rule="evenodd" d="M20.3636 24.7272L33.4545 38.5454H7.27271L20.3636 24.7272Z" fill="white"/>
<path fill-rule="evenodd" clip-rule="evenodd" d="M18.9041 23.8561C19.7103 23.0783 21.0173 23.0783 21.8235 23.8561L35.0318 36.5999C35.6222 37.1695 35.7988 38.0262 35.4793 38.7705C35.1598 39.5148 34.4071 40 33.5721 40H7.15548C6.32052 40 5.56779 39.5148 5.24826 38.7705C4.92874 38.0262 5.10536 37.1695 5.69576 36.5999L18.9041 23.8561ZM12.1393 36.0165H28.5883L20.3638 28.0813L12.1393 36.0165Z" fill="#B3C7DB"/>
</svg>
