<svg width="40" height="33" viewBox="0 0 40 33" fill="none" xmlns="http://www.w3.org/2000/svg">
<path d="M26.5808 4.82752L28.3058 1.91724C25.3785 0.816058 22.6342 0.265465 20.0728 0.265465C14.741 0.265465 10.1671 1.9959 6.35116 5.45677C2.53524 8.91764 0.418184 13.3486 0 18.7497C0 19.1692 0.156819 19.5493 0.470456 19.8902C0.784094 20.231 1.12387 20.4014 1.48978 20.4014H1.80342C2.2216 20.4014 2.58751 20.2572 2.90115 19.9688C3.21479 19.6804 3.3716 19.3265 3.3716 18.907C3.73752 14.3449 5.50173 10.6612 8.66424 7.85578C11.8268 5.05038 15.6296 3.64768 20.0728 3.64768C22.6342 3.64768 24.8035 4.04096 26.5808 4.82752ZM34.2649 11.356C35.6763 13.7157 36.4604 16.2327 36.6172 18.907C36.6172 19.274 36.7609 19.6149 37.0484 19.9295C37.3359 20.2441 37.6888 20.4014 38.107 20.4014H38.499C38.9172 20.4014 39.2831 20.2179 39.5968 19.8509C39.9104 19.4838 40.0411 19.1167 39.9888 18.7497C39.6752 14.8169 38.3945 11.2773 36.1467 8.13108L34.2649 11.356ZM35.1274 0.265465C34.2388 -0.206472 33.4547 -0.0491601 32.7751 0.737402L31.1285 3.49037L29.4035 6.32199L21.8762 19.0643C21.249 18.8545 20.6478 18.7497 20.0728 18.7497C18.2433 18.7497 16.6751 19.4051 15.3682 20.7161C14.0614 22.027 13.408 23.6001 13.408 25.4354C13.408 27.2708 14.0614 28.8439 15.3682 30.1548C16.6751 31.4657 18.2433 32.1212 20.0728 32.1212C21.9024 32.1212 23.4706 31.4657 24.7774 30.1548C26.0842 28.8439 26.7376 27.2708 26.7376 25.4354C26.7376 23.4428 26.0842 21.8697 24.7774 20.7161L32.1479 8.52436L33.7945 5.61408L35.5979 2.62515C36.2774 1.5764 36.1206 0.789839 35.1274 0.265465ZM20.0728 28.8177C19.1842 28.8177 18.4001 28.4768 17.7205 27.7951C17.041 27.1134 16.7012 26.3269 16.7012 25.4354C16.7012 24.544 17.041 23.7574 17.7205 23.0758C18.4001 22.3941 19.1842 22.0532 20.0728 22.0532C20.9614 22.0532 21.7455 22.3941 22.4251 23.0758C23.1046 23.7574 23.4444 24.544 23.4444 25.4354C23.4444 26.3269 23.1046 27.1134 22.4251 27.7951C21.7455 28.4768 20.9614 28.8177 20.0728 28.8177Z" fill="#B3C7DB"/>
</svg>
