<svg width="390" height="444" viewBox="0 0 390 444" fill="none" xmlns="http://www.w3.org/2000/svg">
<path d="M262.518 315.904C262.73 331.456 243.675 342.34 243.16 342.613C233.572 347.888 193.224 370.444 142.985 342.552C127.892 334.185 122.236 324.726 121.934 315.904H121.904V338.975C121.904 339.035 121.904 339.096 121.904 339.157V340.218L121.934 340.188C122.297 348.979 127.983 358.347 142.955 366.654C193.194 394.576 233.542 371.99 243.16 366.745C243.675 366.442 262.609 355.679 262.518 340.218H262.548V315.904H262.518Z" fill="url(#paint0_linear_475_2281)"/>
<path d="M260.432 292.165C260.674 305.99 242.163 315.661 241.649 315.903C232.333 320.603 193.195 340.642 144.408 315.843C129.769 308.385 124.264 300.017 123.992 292.165V312.66C123.992 312.72 123.992 312.781 123.992 312.841V313.812V313.781C124.355 321.573 129.859 329.91 144.408 337.307C193.165 362.107 232.333 342.067 241.649 337.398C242.163 337.125 260.523 327.545 260.432 313.812V313.842V292.165Z" fill="url(#paint1_linear_475_2281)"/>
<path d="M262.518 311.599C262.518 307.294 260.431 302.655 260.431 302.655V309.658V313.782V313.751C260.522 327.515 242.162 337.095 241.648 337.338C232.332 342.007 193.194 362.077 144.407 337.247C129.858 329.85 124.354 321.512 123.991 313.721V313.751V312.781C123.991 312.72 123.991 312.66 123.991 312.599V309.628V302.625C123.961 302.655 121.904 305.505 121.904 310.78C121.904 312.054 121.904 315.873 121.904 315.873H121.934C122.236 324.696 127.892 334.155 142.985 342.522C193.224 370.414 233.572 347.858 243.16 342.583C243.675 342.31 262.76 331.426 262.518 315.873V314.752C262.518 314.782 262.518 312.387 262.518 311.599Z" fill="url(#paint2_linear_475_2281)"/>
<path d="M241.649 333.245C232.333 337.944 193.195 357.983 144.408 333.184C129.859 325.787 124.355 317.45 123.992 309.658V309.688V312.66C123.992 312.72 123.992 312.781 123.992 312.841V313.812V313.781C124.355 321.573 129.859 329.91 144.408 337.307C193.165 362.107 232.333 342.067 241.649 337.398C242.163 337.125 260.523 327.545 260.432 313.812V313.842V309.719C260.492 323.392 242.133 332.972 241.649 333.245Z" fill="#60AFFF"/>
<path d="M262.518 271.822C262.73 287.374 243.675 298.258 243.16 298.531C233.572 303.806 193.224 326.362 142.985 298.47C127.892 290.103 122.236 280.644 121.934 271.822H121.904V294.863C121.904 294.923 121.904 294.984 121.904 295.045V296.136L121.934 296.106C122.297 304.898 127.983 314.266 142.955 322.572C193.194 350.494 233.542 327.939 243.16 322.663C243.675 322.391 262.609 311.598 262.518 296.136L262.548 296.166V271.822H262.518Z" fill="url(#paint3_linear_475_2281)"/>
<path d="M260.432 248.053C260.674 261.878 242.163 271.549 241.649 271.792C232.333 276.491 193.195 296.53 144.408 271.731C129.769 264.303 124.264 255.906 123.992 248.053V268.548C123.992 268.608 123.992 268.669 123.992 268.73V269.7V269.67C124.355 277.491 129.859 285.798 144.408 293.196C193.165 317.995 232.333 297.955 241.649 293.256C242.163 292.983 260.523 283.403 260.432 269.67V269.7V248.053Z" fill="url(#paint4_linear_475_2281)"/>
<path d="M262.518 267.517C262.518 263.243 260.431 258.574 260.431 258.574V265.577V269.7V269.67C260.522 283.434 242.162 293.014 241.648 293.257C232.332 297.925 193.194 317.995 144.407 293.196C129.858 285.799 124.354 277.461 123.991 269.67V269.7V268.73C123.991 268.669 123.991 268.609 123.991 268.548V265.547V258.574C123.961 258.604 121.904 261.484 121.904 266.729C121.904 268.002 121.904 271.822 121.904 271.822H121.934C122.236 280.645 127.892 290.104 142.985 298.471C193.224 326.393 233.572 303.807 243.16 298.532C243.675 298.259 262.76 287.375 262.518 271.822V270.701C262.518 270.701 262.518 268.306 262.518 267.517Z" fill="url(#paint5_linear_475_2281)"/>
<path d="M241.649 289.133C232.333 293.802 193.195 313.872 144.408 289.072C129.859 281.675 124.355 273.338 123.992 265.546V265.577V268.578C123.992 268.639 123.992 268.699 123.992 268.76V269.73V269.7C124.355 277.522 129.859 285.829 144.408 293.226C193.165 318.025 232.333 297.986 241.649 293.287C242.163 293.014 260.523 283.433 260.432 269.7V269.73V265.607C260.492 279.28 242.133 288.891 241.649 289.133Z" fill="#60AFFF"/>
<path d="M262.518 227.711C262.73 243.263 243.675 254.147 243.16 254.45C233.572 259.726 193.224 282.281 142.985 254.359C127.892 245.992 122.236 236.533 121.934 227.711H121.904V250.752C121.904 250.812 121.904 250.873 121.904 250.934V252.025L121.934 251.995C122.297 260.787 127.983 270.155 142.955 278.492C193.194 306.383 233.542 283.828 243.16 278.552C243.675 278.28 262.609 267.487 262.518 252.025L262.548 252.055V227.711H262.518Z" fill="url(#paint6_linear_475_2281)"/>
<path d="M260.432 203.943C260.674 217.767 242.163 227.438 241.649 227.711C232.333 232.38 193.195 252.45 144.408 227.62C129.769 220.192 124.264 211.795 123.992 203.943V224.437C123.992 224.497 123.992 224.558 123.992 224.619V225.559V225.528C124.355 233.35 129.859 241.657 144.408 249.054C193.165 273.854 232.333 253.814 241.649 249.115C242.163 248.872 260.523 239.292 260.432 225.528V203.943Z" fill="url(#paint7_linear_475_2281)"/>
<path d="M262.518 223.406C262.518 219.132 260.431 214.463 260.431 214.463V221.466V225.589C260.522 239.323 242.162 248.933 241.648 249.176C232.332 253.875 193.194 273.915 144.407 249.115C129.858 241.718 124.354 233.381 123.991 225.589V225.62V224.68C123.991 224.619 123.991 224.559 123.991 224.498V221.527V214.524C123.961 214.554 121.904 217.434 121.904 222.679C121.904 223.952 121.904 227.772 121.904 227.772H121.934C122.236 236.594 127.892 246.053 142.985 254.421C193.224 282.343 233.572 259.787 243.16 254.512C243.675 254.239 262.76 243.355 262.518 227.772V226.65C262.518 226.559 262.518 224.195 262.518 223.406Z" fill="url(#paint8_linear_475_2281)"/>
<path d="M241.649 245.022C232.333 249.721 193.195 269.761 144.408 244.962C129.859 237.564 124.355 229.227 123.992 221.435V221.466V224.437C123.992 224.498 123.992 224.558 123.992 224.619V225.559V225.528C124.355 233.35 129.859 241.657 144.408 249.054C193.165 273.854 232.333 253.814 241.649 249.115C242.163 248.872 260.523 239.292 260.432 225.528V221.405V221.375C260.492 235.199 242.133 244.78 241.649 245.022Z" fill="#60AFFF"/>
<path d="M262.518 181.781C262.73 197.364 243.675 208.217 243.16 208.49C233.572 213.765 193.224 236.321 142.985 208.429C127.892 200.062 122.236 190.603 121.934 181.781H121.904V204.822C121.904 204.882 121.904 204.943 121.904 205.034V206.125L121.934 206.095C122.297 214.887 127.983 224.255 142.955 232.562C193.194 260.484 233.542 237.897 243.16 232.653C243.675 232.38 262.609 221.587 262.518 206.125L262.548 206.156V181.781H262.518Z" fill="url(#paint9_linear_475_2281)"/>
<path d="M260.432 158.012C260.674 171.837 242.163 181.508 241.649 181.751C232.333 186.45 193.195 206.489 144.408 181.69C129.769 174.232 124.264 165.865 123.992 158.012V178.507C123.992 178.567 123.992 178.628 123.992 178.689V179.659V179.628C124.355 187.45 129.859 195.757 144.408 203.154C193.165 227.954 232.333 207.884 241.649 203.215C242.163 202.942 260.523 193.392 260.432 179.628V158.012Z" fill="url(#paint10_linear_475_2281)"/>
<path d="M262.518 177.476C262.518 173.202 260.431 168.533 260.431 168.533V175.536V179.659C260.522 193.423 242.162 202.973 241.648 203.246C232.332 207.915 193.194 227.984 144.407 203.185C129.858 195.788 124.354 187.451 123.991 179.659V179.689V178.719C123.991 178.659 123.991 178.598 123.991 178.537V175.566V168.563C123.961 168.563 121.904 171.443 121.904 176.718C121.904 177.992 121.904 181.812 121.904 181.812H121.934C122.236 190.634 127.892 200.093 142.985 208.46C193.224 236.382 233.572 213.796 243.16 208.521C243.675 208.248 262.76 197.364 262.518 181.812V180.69C262.518 180.66 262.518 178.265 262.518 177.476Z" fill="url(#paint11_linear_475_2281)"/>
<path d="M241.649 199.092C232.333 203.76 193.195 223.83 144.408 199.031C129.859 191.634 124.355 183.296 123.992 175.505V175.535V178.506C123.992 178.567 123.992 178.628 123.992 178.688V179.658V179.628C124.355 187.45 129.859 195.757 144.408 203.154C193.165 227.953 232.333 207.884 241.649 203.215C242.163 202.942 260.523 193.392 260.432 179.628V175.505V175.475C260.492 189.269 242.133 198.849 241.649 199.092Z" fill="#60AFFF"/>
<path d="M262.518 135.244C262.73 150.797 243.675 161.68 243.16 161.984C233.572 167.259 193.224 189.815 142.985 161.893C127.892 153.525 122.236 144.097 121.934 135.244H121.904V158.315C121.904 158.376 121.904 158.436 121.904 158.497V159.588L121.934 159.558C122.297 168.35 127.983 177.718 142.955 186.025C193.194 213.947 233.542 191.391 243.16 186.116C243.675 185.843 262.609 175.05 262.518 159.588L262.548 159.619V135.244H262.518Z" fill="url(#paint12_linear_475_2281)"/>
<path d="M142.501 105.625C125.775 114.174 105.813 141.247 142.955 161.893C193.194 189.815 233.542 167.259 243.13 161.984C243.947 161.529 290.616 134.911 236.052 105.049C200.211 85.3728 166.335 93.4674 142.501 105.625Z" fill="url(#paint13_linear_475_2281)"/>
<path d="M253.535 0H131.432L173.776 131.212H211.191L253.535 0Z" fill="url(#paint14_linear_475_2281)"/>
<path d="M193.526 89.0715C181.398 89.0715 169.239 87.9497 157.08 85.7063C145.798 83.6144 134.516 80.5221 123.507 76.4899C103.453 69.1532 93.3513 60.24 93.4723 50.0535C93.6235 37.957 108.837 27.3157 122.902 22.5863C126.35 21.4342 129.919 20.3125 133.518 19.312C134.214 19.1301 134.94 19.5242 135.121 20.2215C135.303 20.9188 134.909 21.6464 134.214 21.8283C130.675 22.8288 127.136 23.9202 123.718 25.0723C110.077 29.6805 96.1944 39.7457 96.0734 50.0838C95.9524 58.9364 105.752 67.2129 124.384 74.0342C135.242 78.0058 146.403 81.0981 157.534 83.1597C192.528 89.6475 227.674 86.6461 261.943 74.2465L262.276 74.1252C262.548 74.0342 288.257 64.3934 288.257 51.1752C288.257 42.2014 275.886 32.9547 252.506 24.4962C251.236 24.0415 249.996 23.5867 248.725 23.1623C248.03 22.9198 247.667 22.1921 247.909 21.4949C248.151 20.7976 248.877 20.4338 249.572 20.6763C250.843 21.1007 252.113 21.5555 253.414 22.0102C278.276 31.0144 290.889 40.8068 290.889 51.1449C290.889 66.3944 263.486 76.4596 263.183 76.5506L262.85 76.6718C240.045 84.9181 216.846 89.0715 193.526 89.0715Z" fill="#49A4FF" fill-opacity="0.3"/>
<path d="M361.629 379.562C361.841 395.115 342.786 405.999 342.272 406.272C332.684 411.547 292.335 434.103 242.097 406.211C227.004 397.844 221.348 388.385 221.045 379.562H221.015V402.634C221.015 402.694 221.015 402.755 221.015 402.816V403.877L221.045 403.846C221.408 412.638 227.095 422.006 242.066 430.313C292.305 458.235 332.653 435.649 342.272 430.404C342.786 430.101 361.72 419.338 361.629 403.877H361.66V379.562H361.629Z" fill="url(#paint15_linear_475_2281)"/>
<path d="M359.543 355.824C359.785 369.649 341.275 379.32 340.76 379.562C331.445 384.261 292.306 404.301 243.519 379.502C228.88 372.044 223.375 363.676 223.103 355.824V376.318C223.103 376.379 223.103 376.44 223.103 376.5V377.47V377.44C223.466 385.232 228.971 393.569 243.519 400.966C292.276 425.765 331.445 405.726 340.76 401.057C341.275 400.784 359.634 391.204 359.543 377.47V377.501V355.824Z" fill="url(#paint16_linear_475_2281)"/>
<path d="M361.629 375.258C361.629 370.953 359.542 366.314 359.542 366.314V373.317V377.44V377.41C359.633 391.174 341.274 400.754 340.759 400.997C331.444 405.666 292.305 425.735 243.518 400.906C228.97 393.508 223.465 385.171 223.102 377.38V377.41V376.44C223.102 376.379 223.102 376.319 223.102 376.258V373.287V366.284C223.072 366.314 221.015 369.164 221.015 374.439C221.015 375.712 221.015 379.532 221.015 379.532H221.045C221.348 388.355 227.004 397.813 242.097 406.181C292.335 434.073 332.684 411.517 342.272 406.242C342.786 405.969 361.871 395.085 361.629 379.532V378.411C361.629 378.441 361.629 376.046 361.629 375.258Z" fill="url(#paint17_linear_475_2281)"/>
<path d="M340.76 396.904C331.445 401.603 292.306 421.642 243.519 396.843C228.971 389.446 223.466 381.108 223.103 373.317V373.347V376.318C223.103 376.379 223.103 376.44 223.103 376.5V377.47V377.44C223.466 385.232 228.971 393.569 243.519 400.966C292.276 425.765 331.445 405.726 340.76 401.057C341.275 400.784 359.634 391.204 359.543 377.47V377.501V373.378C359.604 387.051 341.244 396.631 340.76 396.904Z" fill="#60AFFF"/>
<path d="M361.629 335.481C361.841 351.033 342.786 361.917 342.272 362.19C332.684 367.465 292.335 390.021 242.097 362.129C227.004 353.762 221.348 344.303 221.045 335.481H221.015V358.521C221.015 358.582 221.015 358.643 221.015 358.703V359.795L221.045 359.764C221.408 368.556 227.095 377.924 242.066 386.231C292.305 414.153 332.653 391.597 342.272 386.322C342.786 386.049 361.72 375.256 361.629 359.795L361.66 359.825V335.481H361.629Z" fill="url(#paint18_linear_475_2281)"/>
<path d="M359.543 311.712C359.785 325.537 341.275 335.208 340.76 335.451C331.445 340.15 292.306 360.189 243.519 335.39C228.88 327.962 223.375 319.564 223.103 311.712V332.207C223.103 332.267 223.103 332.328 223.103 332.389V333.359V333.328C223.466 341.15 228.971 349.457 243.519 356.854C292.276 381.654 331.445 361.614 340.76 356.915C341.275 356.642 359.634 347.062 359.543 333.328V333.359V311.712Z" fill="url(#paint19_linear_475_2281)"/>
<path d="M361.629 331.176C361.629 326.902 359.542 322.233 359.542 322.233V329.236V333.359V333.329C359.633 347.093 341.274 356.673 340.759 356.915C331.444 361.584 292.305 381.654 243.518 356.855C228.97 349.457 223.465 341.12 223.102 333.329V333.359V332.389C223.102 332.328 223.102 332.268 223.102 332.207V329.206V322.233C223.072 322.263 221.015 325.143 221.015 330.388C221.015 331.661 221.015 335.481 221.015 335.481H221.045C221.348 344.303 227.004 353.762 242.097 362.13C292.335 390.052 332.684 367.466 342.272 362.191C342.786 361.918 361.871 351.034 361.629 335.481V334.359C361.629 334.359 361.629 331.964 361.629 331.176Z" fill="url(#paint20_linear_475_2281)"/>
<path d="M340.76 352.792C331.445 357.461 292.306 377.531 243.519 352.731C228.971 345.334 223.466 336.997 223.103 329.205V329.236V332.237C223.103 332.298 223.103 332.358 223.103 332.419V333.389V333.359C223.466 341.18 228.971 349.487 243.519 356.885C292.276 381.684 331.445 361.644 340.76 356.945C341.275 356.672 359.634 347.092 359.543 333.359V333.389V329.266C359.604 342.939 341.244 352.549 340.76 352.792Z" fill="#60AFFF"/>
<path d="M361.629 291.37C361.841 306.922 342.786 317.806 342.272 318.109C332.684 323.384 292.335 345.94 242.097 318.018C227.004 309.651 221.348 300.192 221.045 291.37H221.015V314.411C221.015 314.471 221.015 314.532 221.015 314.592V315.684L221.045 315.654C221.408 324.445 227.095 333.813 242.066 342.151C292.305 370.042 332.653 347.486 342.272 342.211C342.786 341.938 361.72 331.146 361.629 315.684L361.66 315.714V291.37H361.629Z" fill="url(#paint21_linear_475_2281)"/>
<path d="M359.543 267.601C359.785 281.426 341.275 291.097 340.76 291.37C331.445 296.039 292.306 316.109 243.519 291.279C228.88 283.851 223.375 275.453 223.103 267.601V288.096C223.103 288.156 223.103 288.217 223.103 288.278V289.217V289.187C223.466 297.009 228.971 305.316 243.519 312.713C292.276 337.512 331.445 317.473 340.76 312.774C341.275 312.531 359.634 302.951 359.543 289.187V267.601Z" fill="url(#paint22_linear_475_2281)"/>
<path d="M361.629 287.065C361.629 282.791 359.542 278.122 359.542 278.122V285.125V289.248C359.633 302.982 341.274 312.592 340.759 312.835C331.444 317.534 292.305 337.573 243.518 312.774C228.97 305.377 223.465 297.04 223.102 289.248V289.278V288.339C223.102 288.278 223.102 288.217 223.102 288.157V285.186V278.182C223.072 278.213 221.015 281.093 221.015 286.338C221.015 287.611 221.015 291.431 221.015 291.431H221.045C221.348 300.253 227.004 309.712 242.097 318.08C292.335 346.002 332.684 323.446 342.272 318.171C342.786 317.898 361.871 307.014 361.629 291.431V290.309C361.629 290.218 361.629 287.854 361.629 287.065Z" fill="url(#paint23_linear_475_2281)"/>
<path d="M340.76 308.681C331.445 313.38 292.306 333.42 243.519 308.62C228.971 301.223 223.466 292.886 223.103 285.094V285.125V288.096C223.103 288.156 223.103 288.217 223.103 288.278V289.217V289.187C223.466 297.009 228.971 305.316 243.519 312.713C292.276 337.512 331.445 317.473 340.76 312.774C341.275 312.531 359.634 302.951 359.543 289.187V285.064V285.034C359.604 298.858 341.244 308.438 340.76 308.681Z" fill="#60AFFF"/>
<path d="M361.629 245.44C361.841 261.022 342.786 271.876 342.272 272.149C332.684 277.424 292.335 299.98 242.097 272.088C227.004 263.721 221.348 254.262 221.045 245.44H221.015V268.48C221.015 268.541 221.015 268.602 221.015 268.693V269.784L221.045 269.754C221.408 278.546 227.095 287.914 242.066 296.221C292.305 324.142 332.653 301.556 342.272 296.311C342.786 296.039 361.72 285.246 361.629 269.784L361.66 269.814V245.44H361.629Z" fill="url(#paint24_linear_475_2281)"/>
<path d="M359.543 221.671C359.785 235.496 341.275 245.167 340.76 245.409C331.445 250.109 292.306 270.148 243.519 245.349C228.88 237.891 223.375 229.523 223.103 221.671V242.166C223.103 242.226 223.103 242.287 223.103 242.347V243.318V243.287C223.466 251.109 228.971 259.416 243.519 266.813C292.276 291.613 331.445 271.543 340.76 266.874C341.275 266.601 359.634 257.051 359.543 243.287V221.671Z" fill="url(#paint25_linear_475_2281)"/>
<path d="M361.629 241.135C361.629 236.86 359.542 232.192 359.542 232.192V239.195V243.318C359.633 257.082 341.274 266.632 340.759 266.905C331.444 271.573 292.305 291.643 243.518 266.844C228.97 259.447 223.465 251.109 223.102 243.318V243.348V242.378C223.102 242.318 223.102 242.257 223.102 242.196V239.225V232.222C223.072 232.222 221.015 235.102 221.015 240.377C221.015 241.651 221.015 245.47 221.015 245.47H221.045C221.348 254.293 227.004 263.752 242.097 272.119C292.335 300.041 332.684 277.455 342.272 272.18C342.786 271.907 361.871 261.023 361.629 245.47V244.349C361.629 244.318 361.629 241.923 361.629 241.135Z" fill="url(#paint26_linear_475_2281)"/>
<path d="M340.76 262.75C331.445 267.419 292.306 287.489 243.519 262.69C228.971 255.292 223.466 246.955 223.103 239.164V239.194V242.165C223.103 242.226 223.103 242.286 223.103 242.347V243.317V243.287C223.466 251.109 228.971 259.416 243.519 266.813C292.276 291.612 331.445 271.542 340.76 266.874C341.275 266.601 359.634 257.051 359.543 243.287V239.164V239.133C359.604 252.928 341.244 262.508 340.76 262.75Z" fill="#60AFFF"/>
<path d="M361.629 198.903C361.841 214.455 342.786 225.339 342.272 225.642C332.684 230.918 292.335 253.473 242.097 225.551C227.004 217.184 221.348 207.755 221.045 198.903H221.015V221.974C221.015 222.035 221.015 222.095 221.015 222.156V223.247L221.045 223.217C221.408 232.009 227.095 241.377 242.066 249.684C292.305 277.606 332.653 255.05 342.272 249.775C342.786 249.502 361.72 238.709 361.629 223.247L361.66 223.278V198.903H361.629Z" fill="url(#paint27_linear_475_2281)"/>
<path d="M241.613 169.283C224.887 177.833 204.924 204.906 242.066 225.552C292.305 253.474 332.653 230.918 342.241 225.643C343.058 225.188 389.728 198.57 335.164 168.707C299.322 149.032 265.447 157.126 241.613 169.283Z" fill="url(#paint28_linear_475_2281)"/>
<path d="M291.912 211.879C279.329 211.879 268.531 209.211 260.395 206.24C251.14 202.844 246.452 198.63 246.512 193.749C246.603 187.989 253.62 183.017 260.153 180.834C263.662 179.652 267.201 178.651 270.649 177.893C271.344 177.742 272.04 178.197 272.191 178.894C272.342 179.591 271.889 180.288 271.193 180.44C267.836 181.168 264.388 182.138 260.97 183.29C255.132 185.26 249.174 189.505 249.113 193.779C249.053 197.387 253.257 200.843 261.272 203.784C275.155 208.877 296.963 213 322.218 203.875L322.339 203.814C325.213 202.784 333.44 198.812 333.47 194.265C333.47 191.688 330.778 187.655 317.984 183.047C315.655 182.198 313.326 181.471 311.088 180.895C310.392 180.713 309.969 180.016 310.15 179.318C310.332 178.621 311.027 178.197 311.723 178.378C314.052 178.985 316.441 179.712 318.861 180.592C330.475 184.775 336.101 189.262 336.071 194.295C336.041 201.692 323.368 206.24 323.216 206.3L323.095 206.331C311.965 210.363 301.439 211.879 291.912 211.879Z" fill="#49A4FF" fill-opacity="0.3"/>
<path d="M352.646 63.6588H230.543L272.888 194.871H310.302L352.646 63.6588Z" fill="url(#paint29_linear_475_2281)"/>
<path d="M292.516 174.134C268.41 174.134 247.721 169.011 232.115 163.311C214.753 156.945 206.012 149.214 206.133 140.361C206.284 129.841 219.441 120.655 231.6 116.562C235.563 115.228 239.646 113.985 243.699 112.924C244.394 112.742 245.12 113.167 245.302 113.864C245.483 114.561 245.06 115.289 244.364 115.471C240.341 116.532 236.349 117.745 232.417 119.079C220.742 123.02 208.855 131.6 208.734 140.452C208.644 148.001 217.022 155.065 232.992 160.916C259.941 170.799 302.376 178.864 351.375 161.068L351.617 160.977C351.829 160.886 373.878 152.64 373.878 141.392C373.878 133.722 363.262 125.839 343.208 118.594C340.879 117.745 338.49 116.956 336.07 116.199C335.375 115.986 334.981 115.259 335.193 114.561C335.405 113.864 336.131 113.47 336.826 113.682C339.276 114.44 341.696 115.259 344.085 116.108C365.59 123.899 376.479 132.388 376.479 141.362C376.479 154.61 352.736 163.311 352.494 163.402L352.252 163.493C330.868 171.224 310.724 174.134 292.516 174.134Z" fill="#49A4FF" fill-opacity="0.3"/>
<path d="M292.184 192.961C273.855 192.961 258.187 189.081 246.361 184.745C233.083 179.864 226.398 173.922 226.489 167.07C226.58 158.945 236.682 151.882 245.998 148.729C249.748 147.455 253.59 146.334 257.37 145.394C258.066 145.212 258.762 145.636 258.943 146.334C259.125 147.031 258.701 147.728 258.006 147.91C254.285 148.85 250.535 149.941 246.845 151.184C238.104 154.125 229.211 160.552 229.121 167.101C229.06 172.649 235.321 177.924 247.298 182.29C267.624 189.748 299.624 195.811 336.706 182.411L336.948 182.32C341.576 180.622 353.614 174.68 353.583 167.768C353.553 162.129 345.598 156.247 330.536 150.821C328.146 149.972 325.757 149.183 323.398 148.486C322.702 148.274 322.309 147.577 322.521 146.879C322.732 146.182 323.428 145.788 324.124 146C326.543 146.697 328.993 147.486 331.413 148.365C348.048 154.368 356.154 160.734 356.154 167.768C356.184 177.924 338.551 184.503 337.795 184.806L337.553 184.897C321.311 190.748 306.006 192.961 292.184 192.961Z" fill="#49A4FF" fill-opacity="0.3"/>
<path d="M292.638 152.73C280.509 152.73 268.35 151.609 256.191 149.365C244.909 147.273 233.628 144.181 222.618 140.149C202.565 132.812 192.463 123.899 192.584 113.712C192.735 101.616 207.949 90.9745 222.013 86.2451C225.461 85.093 229.03 83.9713 232.629 82.9708C233.325 82.7889 234.051 83.183 234.232 83.8803C234.414 84.5776 234.021 85.3052 233.325 85.4871C229.786 86.4876 226.247 87.579 222.83 88.7311C209.189 93.3393 195.306 103.404 195.185 113.743C195.064 122.595 204.864 130.872 223.495 137.693C234.353 141.665 245.514 144.757 256.645 146.818C291.64 153.306 326.786 150.305 361.054 137.905L361.387 137.784C361.659 137.693 387.368 128.052 387.368 114.834C387.368 105.86 374.998 96.6135 351.618 88.155C350.347 87.7003 349.107 87.2455 347.837 86.8211C347.141 86.5786 346.778 85.8509 347.02 85.1537C347.262 84.4564 347.988 84.0926 348.684 84.3351C349.954 84.7595 351.224 85.2143 352.525 85.669C377.387 94.6732 390 104.466 390 114.804C390 130.053 362.597 140.118 362.294 140.209L361.962 140.331C339.156 148.577 315.957 152.73 292.638 152.73Z" fill="#49A4FF" fill-opacity="0.3"/>
<path d="M169.047 374.728C169.258 390.28 150.203 401.164 149.689 401.437C140.101 406.712 99.7529 429.268 49.5141 401.376C34.4213 393.009 28.7653 383.55 28.4628 374.728H28.4326V397.799C28.4326 397.859 28.4326 397.92 28.4326 397.981V399.042L28.4628 399.011C28.8258 407.803 34.5121 417.171 49.4839 425.478C99.7226 453.4 140.071 430.814 149.689 425.569C150.203 425.266 169.137 414.503 169.047 399.042H169.077V374.728H169.047Z" fill="url(#paint30_linear_475_2281)"/>
<path d="M166.961 350.989C167.203 364.814 148.692 374.485 148.178 374.727C138.862 379.427 99.7236 399.466 50.9366 374.667C36.2975 367.209 30.7927 358.841 30.5205 350.989V371.484C30.5205 371.544 30.5205 371.605 30.5205 371.665V372.636V372.605C30.8835 380.397 36.3882 388.734 50.9366 396.131C99.6933 420.931 138.862 400.891 148.178 396.222C148.692 395.949 167.051 386.369 166.961 372.636V372.666V350.989Z" fill="url(#paint31_linear_475_2281)"/>
<path d="M169.047 370.423C169.047 366.118 166.96 361.479 166.96 361.479V368.482V372.606V372.575C167.05 386.339 148.691 395.919 148.177 396.162C138.861 400.831 99.7226 420.901 50.9357 396.071C36.3873 388.674 30.8825 380.336 30.5196 372.545V372.575V371.605C30.5196 371.544 30.5196 371.484 30.5196 371.423V368.452V361.449C30.4893 361.479 28.4326 364.329 28.4326 369.604C28.4326 370.877 28.4326 374.697 28.4326 374.697H28.4628C28.7653 383.52 34.4213 392.979 49.5141 401.346C99.7529 429.238 140.101 406.682 149.689 401.407C150.203 401.134 169.289 390.25 169.047 374.697V373.576C169.047 373.606 169.047 371.211 169.047 370.423Z" fill="url(#paint32_linear_475_2281)"/>
<path d="M148.178 392.069C138.862 396.768 99.7236 416.807 50.9366 392.008C36.3883 384.611 30.8835 376.274 30.5205 368.482V368.512V371.484C30.5205 371.544 30.5205 371.605 30.5205 371.665V372.636V372.605C30.8835 380.397 36.3883 388.734 50.9366 396.131C99.6933 420.931 138.862 400.891 148.178 396.222C148.692 395.949 167.051 386.369 166.961 372.636V372.666V368.543C167.021 382.216 148.662 391.796 148.178 392.069Z" fill="#60AFFF"/>
<path d="M169.047 330.646C169.258 346.198 150.203 357.082 149.689 357.355C140.101 362.63 99.7529 385.186 49.5141 357.294C34.4213 348.927 28.7653 339.468 28.4628 330.646H28.4326V353.687C28.4326 353.747 28.4326 353.808 28.4326 353.869V354.96L28.4628 354.93C28.8258 363.722 34.5121 373.09 49.4839 381.396C99.7226 409.318 140.071 386.763 149.689 381.487C150.203 381.214 169.137 370.422 169.047 354.96L169.077 354.99V330.646H169.047Z" fill="url(#paint33_linear_475_2281)"/>
<path d="M166.961 306.877C167.203 320.702 148.692 330.373 148.178 330.616C138.862 335.315 99.7236 355.354 50.9366 330.555C36.2975 323.127 30.7927 314.73 30.5205 306.877V327.372C30.5205 327.432 30.5205 327.493 30.5205 327.554V328.524V328.493C30.8835 336.315 36.3882 344.622 50.9366 352.02C99.6933 376.819 138.862 356.779 148.178 352.08C148.692 351.807 167.051 342.227 166.961 328.493V328.524V306.877Z" fill="url(#paint34_linear_475_2281)"/>
<path d="M169.047 326.341C169.047 322.067 166.96 317.398 166.96 317.398V324.401V328.524V328.494C167.05 342.258 148.691 351.838 148.177 352.08C138.861 356.749 99.7226 376.819 50.9357 352.02C36.3873 344.623 30.8825 336.285 30.5196 328.494V328.524V327.554C30.5196 327.493 30.5196 327.433 30.5196 327.372V324.371V317.398C30.4893 317.428 28.4326 320.308 28.4326 325.553C28.4326 326.826 28.4326 330.646 28.4326 330.646H28.4628C28.7653 339.469 34.4213 348.928 49.5141 357.295C99.7529 385.217 140.101 362.631 149.689 357.356C150.203 357.083 169.289 346.199 169.047 330.646V329.525C169.047 329.525 169.047 327.13 169.047 326.341Z" fill="url(#paint35_linear_475_2281)"/>
<path d="M148.178 347.957C138.862 352.626 99.7236 372.696 50.9366 347.896C36.3883 340.499 30.8835 332.162 30.5205 324.37V324.401V327.402C30.5205 327.463 30.5205 327.523 30.5205 327.584V328.554V328.524C30.8835 336.346 36.3883 344.652 50.9366 352.05C99.6933 376.849 138.862 356.81 148.178 352.11C148.692 351.838 167.051 342.257 166.961 328.524V328.554V324.431C167.021 338.104 148.662 347.714 148.178 347.957Z" fill="#60AFFF"/>
<path d="M169.047 286.535C169.258 302.087 150.203 312.971 149.689 313.274C140.101 318.55 99.7529 341.105 49.5141 313.183C34.4213 304.816 28.7653 295.357 28.4628 286.535H28.4326V309.576C28.4326 309.636 28.4326 309.697 28.4326 309.758V310.849L28.4628 310.819C28.8258 319.611 34.5121 328.979 49.4839 337.316C99.7226 365.207 140.071 342.652 149.689 337.376C150.203 337.104 169.137 326.311 169.047 310.849L169.077 310.879V286.535H169.047Z" fill="url(#paint36_linear_475_2281)"/>
<path d="M166.961 262.767C167.203 276.591 148.692 286.262 148.178 286.535C138.862 291.204 99.7236 311.274 50.9366 286.444C36.2975 279.016 30.7927 270.619 30.5205 262.767V283.261C30.5205 283.321 30.5205 283.382 30.5205 283.443V284.383V284.352C30.8835 292.174 36.3882 300.481 50.9366 307.878C99.6933 332.678 138.862 312.638 148.178 307.939C148.692 307.696 167.051 298.116 166.961 284.352V262.767Z" fill="url(#paint37_linear_475_2281)"/>
<path d="M169.047 282.23C169.047 277.956 166.96 273.287 166.96 273.287V280.29V284.413C167.05 298.147 148.691 307.757 148.177 308C138.861 312.699 99.7226 332.739 50.9357 307.939C36.3873 300.542 30.8825 292.205 30.5196 284.413V284.444V283.504C30.5196 283.443 30.5196 283.382 30.5196 283.322V280.351V273.348C30.4893 273.378 28.4326 276.258 28.4326 281.503C28.4326 282.776 28.4326 286.596 28.4326 286.596H28.4628C28.7653 295.418 34.4213 304.877 49.5141 313.245C99.7529 341.167 140.101 318.611 149.689 313.336C150.203 313.063 169.289 302.179 169.047 286.596V285.474C169.047 285.383 169.047 283.019 169.047 282.23Z" fill="url(#paint38_linear_475_2281)"/>
<path d="M148.178 303.846C138.862 308.545 99.7236 328.585 50.9366 303.785C36.3883 296.388 30.8835 288.051 30.5205 280.259V280.29V283.261C30.5205 283.321 30.5205 283.382 30.5205 283.443V284.383V284.352C30.8835 292.174 36.3883 300.481 50.9366 307.878C99.6933 332.678 138.862 312.638 148.178 307.939C148.692 307.696 167.051 298.116 166.961 284.352V280.229V280.199C167.021 294.023 148.662 303.604 148.178 303.846Z" fill="#60AFFF"/>
<path d="M169.047 240.605C169.258 256.188 150.203 267.041 149.689 267.314C140.101 272.589 99.7529 295.145 49.5141 267.253C34.4213 258.886 28.7653 249.427 28.4628 240.605H28.4326V263.646C28.4326 263.706 28.4326 263.767 28.4326 263.858V264.949L28.4628 264.919C28.8258 273.711 34.5121 283.079 49.4839 291.386C99.7226 319.308 140.071 296.721 149.689 291.477C150.203 291.204 169.137 280.411 169.047 264.949L169.077 264.98V240.605H169.047Z" fill="url(#paint39_linear_475_2281)"/>
<path d="M166.961 216.836C167.203 230.661 148.692 240.332 148.178 240.575C138.862 245.274 99.7236 265.313 50.9366 240.514C36.2975 233.056 30.7927 224.689 30.5205 216.836V237.331C30.5205 237.391 30.5205 237.452 30.5205 237.513V238.483V238.452C30.8835 246.274 36.3882 254.581 50.9366 261.978C99.6933 286.778 138.862 266.708 148.178 262.039C148.692 261.766 167.051 252.216 166.961 238.452V216.836Z" fill="url(#paint40_linear_475_2281)"/>
<path d="M169.047 236.3C169.047 232.026 166.96 227.357 166.96 227.357V234.36V238.483C167.05 252.247 148.691 261.797 148.177 262.07C138.861 266.739 99.7226 286.808 50.9357 262.009C36.3873 254.612 30.8825 246.275 30.5196 238.483V238.513V237.543C30.5196 237.483 30.5196 237.422 30.5196 237.361V234.39V227.387C30.4893 227.387 28.4326 230.267 28.4326 235.542C28.4326 236.816 28.4326 240.636 28.4326 240.636H28.4628C28.7653 249.458 34.4213 258.917 49.5141 267.284C99.7529 295.206 140.101 272.62 149.689 267.345C150.203 267.072 169.289 256.188 169.047 240.636V239.514C169.047 239.484 169.047 237.089 169.047 236.3Z" fill="url(#paint41_linear_475_2281)"/>
<path d="M148.178 257.916C138.862 262.584 99.7236 282.654 50.9366 257.855C36.3883 250.458 30.8835 242.12 30.5205 234.329V234.359V237.33C30.5205 237.391 30.5205 237.452 30.5205 237.512V238.482V238.452C30.8835 246.274 36.3883 254.581 50.9366 261.978C99.6933 286.777 138.862 266.708 148.178 262.039C148.692 261.766 167.051 252.216 166.961 238.452V234.329V234.299C167.021 248.093 148.662 257.673 148.178 257.916Z" fill="#60AFFF"/>
<path d="M169.047 194.068C169.258 209.621 150.203 220.504 149.689 220.808C140.101 226.083 99.7529 248.639 49.5141 220.717C34.4213 212.349 28.7653 202.92 28.4628 194.068H28.4326V217.139C28.4326 217.2 28.4326 217.26 28.4326 217.321V218.412L28.4628 218.382C28.8258 227.174 34.5121 236.542 49.4839 244.849C99.7226 272.771 140.071 250.215 149.689 244.94C150.203 244.667 169.137 233.874 169.047 218.412L169.077 218.443V194.068H169.047Z" fill="url(#paint42_linear_475_2281)"/>
<path d="M49.0302 164.448C32.3041 172.998 12.3416 200.071 49.4838 220.717C99.7226 248.639 140.071 226.083 149.659 220.808C150.476 220.353 197.145 193.735 142.581 163.872C106.74 144.197 72.8641 152.291 49.0302 164.448Z" fill="url(#paint43_linear_475_2281)"/>
<path d="M99.3291 207.044C86.7468 207.044 75.9489 204.376 67.8127 201.405C58.5574 198.009 53.8693 193.795 53.9298 188.914C54.0205 183.154 61.0376 178.182 67.5708 175.999C71.0793 174.817 74.6181 173.816 78.0661 173.059C78.7618 172.907 79.4575 173.362 79.6087 174.059C79.76 174.756 79.3063 175.454 78.6106 175.605C75.2533 176.333 71.8052 177.303 68.3874 178.455C62.5499 180.426 56.5914 184.67 56.5309 188.945C56.4705 192.552 60.6747 196.009 68.6899 198.949C82.5728 204.043 104.38 208.166 129.636 199.04L129.757 198.98C132.63 197.949 140.857 193.977 140.887 189.43C140.887 186.853 138.195 182.821 125.401 178.212C123.072 177.364 120.743 176.636 118.505 176.06C117.81 175.878 117.386 175.181 117.568 174.483C117.749 173.786 118.445 173.362 119.14 173.544C121.469 174.15 123.859 174.878 126.278 175.757C137.893 179.94 143.519 184.427 143.488 189.46C143.458 196.857 130.785 201.405 130.634 201.466L130.513 201.496C119.382 205.528 108.857 207.044 99.3291 207.044Z" fill="#49A4FF" fill-opacity="0.3"/>
<path d="M160.064 58.824H37.9604L80.305 190.036H117.719L160.064 58.824Z" fill="url(#paint44_linear_475_2281)"/>
<path d="M99.9334 169.3C75.8273 169.3 55.139 164.176 39.532 158.476C22.1707 152.11 13.4296 144.379 13.5506 135.526C13.7018 125.006 26.8589 115.82 39.0178 111.728C42.98 110.394 47.0633 109.151 51.1162 108.089C51.8119 107.908 52.5378 108.332 52.7193 109.029C52.9008 109.727 52.4773 110.454 51.7816 110.636C47.7589 111.697 43.7664 112.91 39.8344 114.244C28.1594 118.185 16.2727 126.765 16.1517 135.617C16.061 143.166 24.4392 150.23 40.4091 156.081C67.3584 165.965 109.794 174.029 158.792 156.233L159.034 156.142C159.246 156.051 181.295 147.805 181.295 136.557C181.295 128.887 170.679 121.005 150.626 113.759C148.297 112.91 145.907 112.122 143.488 111.364C142.792 111.152 142.399 110.424 142.611 109.727C142.822 109.029 143.548 108.635 144.244 108.847C146.694 109.605 149.114 110.424 151.503 111.273C173.008 119.064 183.897 127.553 183.897 136.527C183.897 149.775 160.153 158.476 159.911 158.567L159.669 158.658C138.285 166.389 118.142 169.3 99.9334 169.3Z" fill="#49A4FF" fill-opacity="0.3"/>
<path d="M99.6012 188.126C81.2721 188.126 65.6046 184.246 53.7783 179.91C40.5003 175.029 33.8159 169.087 33.9067 162.236C33.9974 154.111 44.0996 147.047 53.4154 143.894C57.1659 142.62 61.0072 141.499 64.7879 140.559C65.4836 140.377 66.1792 140.801 66.3607 141.499C66.5422 142.196 66.1188 142.893 65.4231 143.075C61.7028 144.015 57.9523 145.106 54.2623 146.349C45.5212 149.29 36.6288 155.717 36.5381 162.266C36.4776 167.814 42.7385 173.089 54.716 177.455C75.0413 184.913 107.042 190.976 144.123 177.576L144.365 177.485C148.993 175.787 161.031 169.845 161.001 162.933C160.97 157.294 153.016 151.412 137.953 145.986C135.564 145.137 133.174 144.349 130.815 143.651C130.119 143.439 129.726 142.742 129.938 142.044C130.15 141.347 130.845 140.953 131.541 141.165C133.961 141.863 136.411 142.651 138.83 143.53C155.466 149.533 163.572 155.899 163.572 162.933C163.602 173.089 145.968 179.668 145.212 179.971L144.97 180.062C128.728 185.913 113.424 188.126 99.6012 188.126Z" fill="#49A4FF" fill-opacity="0.3"/>
<path d="M100.055 147.895C87.9265 147.895 75.7675 146.774 63.6086 144.53C52.3268 142.438 41.045 139.346 30.0355 135.314C9.98231 127.977 -0.119911 119.064 0.00107388 108.877C0.152304 96.781 15.3661 86.1397 29.4305 81.4102C32.8786 80.2582 36.4476 79.1364 40.0469 78.136C40.7426 77.9541 41.4685 78.3482 41.65 79.0455C41.8314 79.7428 41.4382 80.4704 40.7426 80.6523C37.2038 81.6528 33.665 82.7442 30.2472 83.8962C16.6062 88.5044 2.72322 98.5697 2.60224 108.908C2.48126 117.76 12.281 126.037 30.9126 132.858C41.7709 136.83 52.9318 139.922 64.0623 141.984C99.0571 148.471 134.203 145.47 168.472 133.07L168.805 132.949C169.077 132.858 194.786 123.217 194.786 109.999C194.786 101.025 182.415 91.7786 159.035 83.3202C157.765 82.8654 156.525 82.4107 155.254 81.9863C154.559 81.7437 154.196 81.0161 154.438 80.3188C154.68 79.6215 155.406 79.2577 156.101 79.5003C157.372 79.9247 158.642 80.3794 159.942 80.8342C184.805 89.8384 197.417 99.6308 197.417 109.969C197.417 125.218 170.014 135.284 169.712 135.375L169.379 135.496C146.574 143.742 123.375 147.895 100.055 147.895Z" fill="#49A4FF" fill-opacity="0.3"/>
<defs>
<linearGradient id="paint0_linear_475_2281" x1="121.893" y1="348.145" x2="262.517" y2="348.145" gradientUnits="userSpaceOnUse">
<stop stop-color="#60AFFF"/>
<stop offset="1" stop-color="#9EB2E5"/>
</linearGradient>
<linearGradient id="paint1_linear_475_2281" x1="123.982" y1="320.8" x2="260.433" y2="320.8" gradientUnits="userSpaceOnUse">
<stop stop-color="#49A4FF"/>
<stop offset="1" stop-color="#60AFFF"/>
</linearGradient>
<linearGradient id="paint2_linear_475_2281" x1="121.893" y1="329.455" x2="262.523" y2="329.455" gradientUnits="userSpaceOnUse">
<stop stop-color="#60AFFF"/>
<stop offset="1" stop-color="#A8D3FF"/>
</linearGradient>
<linearGradient id="paint3_linear_475_2281" x1="121.893" y1="304.036" x2="262.517" y2="304.036" gradientUnits="userSpaceOnUse">
<stop stop-color="#60AFFF"/>
<stop offset="1" stop-color="#9EB2E5"/>
</linearGradient>
<linearGradient id="paint4_linear_475_2281" x1="123.982" y1="276.695" x2="260.433" y2="276.695" gradientUnits="userSpaceOnUse">
<stop stop-color="#49A4FF"/>
<stop offset="1" stop-color="#60AFFF"/>
</linearGradient>
<linearGradient id="paint5_linear_475_2281" x1="121.893" y1="285.348" x2="262.523" y2="285.348" gradientUnits="userSpaceOnUse">
<stop stop-color="#60AFFF"/>
<stop offset="1" stop-color="#A7D3FF"/>
</linearGradient>
<linearGradient id="paint6_linear_475_2281" x1="121.893" y1="259.927" x2="262.517" y2="259.927" gradientUnits="userSpaceOnUse">
<stop stop-color="#60AFFF"/>
<stop offset="1" stop-color="#9EB2E5"/>
</linearGradient>
<linearGradient id="paint7_linear_475_2281" x1="123.982" y1="232.588" x2="260.433" y2="232.588" gradientUnits="userSpaceOnUse">
<stop stop-color="#49A4FF"/>
<stop offset="1" stop-color="#60AFFF"/>
</linearGradient>
<linearGradient id="paint8_linear_475_2281" x1="121.893" y1="241.242" x2="262.523" y2="241.242" gradientUnits="userSpaceOnUse">
<stop stop-color="#60AFFF"/>
<stop offset="1" stop-color="#B9DCFF"/>
</linearGradient>
<linearGradient id="paint9_linear_475_2281" x1="121.893" y1="214" x2="262.517" y2="214" gradientUnits="userSpaceOnUse">
<stop stop-color="#60AFFF"/>
<stop offset="1" stop-color="#9EB2E5"/>
</linearGradient>
<linearGradient id="paint10_linear_475_2281" x1="123.982" y1="186.661" x2="260.433" y2="186.661" gradientUnits="userSpaceOnUse">
<stop stop-color="#49A4FF"/>
<stop offset="1" stop-color="#49A4FF"/>
</linearGradient>
<linearGradient id="paint11_linear_475_2281" x1="121.893" y1="195.314" x2="262.523" y2="195.314" gradientUnits="userSpaceOnUse">
<stop stop-color="#60AFFF"/>
<stop offset="1" stop-color="#A5D2FF"/>
</linearGradient>
<linearGradient id="paint12_linear_475_2281" x1="121.893" y1="167.475" x2="262.517" y2="167.475" gradientUnits="userSpaceOnUse">
<stop stop-color="#60AFFF"/>
<stop offset="1" stop-color="#9EB2E5"/>
</linearGradient>
<linearGradient id="paint13_linear_475_2281" x1="121.903" y1="134.382" x2="262.515" y2="134.382" gradientUnits="userSpaceOnUse">
<stop stop-color="#49A4FF"/>
<stop offset="1" stop-color="#B8CBFC"/>
</linearGradient>
<linearGradient id="paint14_linear_475_2281" x1="192.483" y1="0" x2="192.483" y2="131.212" gradientUnits="userSpaceOnUse">
<stop stop-color="#57EA80"/>
<stop offset="1" stop-color="#80FFA3" stop-opacity="0"/>
</linearGradient>
<linearGradient id="paint15_linear_475_2281" x1="221.005" y1="411.803" x2="361.629" y2="411.803" gradientUnits="userSpaceOnUse">
<stop stop-color="#60AFFF"/>
<stop offset="1" stop-color="#9EB2E5"/>
</linearGradient>
<linearGradient id="paint16_linear_475_2281" x1="223.093" y1="384.459" x2="359.544" y2="384.459" gradientUnits="userSpaceOnUse">
<stop stop-color="#49A4FF"/>
<stop offset="1" stop-color="#60AFFF"/>
</linearGradient>
<linearGradient id="paint17_linear_475_2281" x1="221.005" y1="393.114" x2="361.635" y2="393.114" gradientUnits="userSpaceOnUse">
<stop stop-color="#60AFFF"/>
<stop offset="1" stop-color="#A8D3FF"/>
</linearGradient>
<linearGradient id="paint18_linear_475_2281" x1="221.005" y1="367.695" x2="361.629" y2="367.695" gradientUnits="userSpaceOnUse">
<stop stop-color="#60AFFF"/>
<stop offset="1" stop-color="#9EB2E5"/>
</linearGradient>
<linearGradient id="paint19_linear_475_2281" x1="223.093" y1="340.354" x2="359.544" y2="340.354" gradientUnits="userSpaceOnUse">
<stop stop-color="#49A4FF"/>
<stop offset="1" stop-color="#60AFFF"/>
</linearGradient>
<linearGradient id="paint20_linear_475_2281" x1="221.005" y1="349.007" x2="361.635" y2="349.007" gradientUnits="userSpaceOnUse">
<stop stop-color="#60AFFF"/>
<stop offset="1" stop-color="#A7D3FF"/>
</linearGradient>
<linearGradient id="paint21_linear_475_2281" x1="221.005" y1="323.585" x2="361.629" y2="323.585" gradientUnits="userSpaceOnUse">
<stop stop-color="#60AFFF"/>
<stop offset="1" stop-color="#9EB2E5"/>
</linearGradient>
<linearGradient id="paint22_linear_475_2281" x1="223.093" y1="296.247" x2="359.544" y2="296.247" gradientUnits="userSpaceOnUse">
<stop stop-color="#49A4FF"/>
<stop offset="1" stop-color="#60AFFF"/>
</linearGradient>
<linearGradient id="paint23_linear_475_2281" x1="221.005" y1="304.9" x2="361.635" y2="304.9" gradientUnits="userSpaceOnUse">
<stop stop-color="#60AFFF"/>
<stop offset="1" stop-color="#B9DCFF"/>
</linearGradient>
<linearGradient id="paint24_linear_475_2281" x1="221.005" y1="277.659" x2="361.629" y2="277.659" gradientUnits="userSpaceOnUse">
<stop stop-color="#60AFFF"/>
<stop offset="1" stop-color="#9EB2E5"/>
</linearGradient>
<linearGradient id="paint25_linear_475_2281" x1="223.093" y1="250.32" x2="359.544" y2="250.32" gradientUnits="userSpaceOnUse">
<stop stop-color="#49A4FF"/>
<stop offset="1" stop-color="#49A4FF"/>
</linearGradient>
<linearGradient id="paint26_linear_475_2281" x1="221.005" y1="258.973" x2="361.635" y2="258.973" gradientUnits="userSpaceOnUse">
<stop stop-color="#60AFFF"/>
<stop offset="1" stop-color="#A5D2FF"/>
</linearGradient>
<linearGradient id="paint27_linear_475_2281" x1="221.005" y1="231.134" x2="361.629" y2="231.134" gradientUnits="userSpaceOnUse">
<stop stop-color="#60AFFF"/>
<stop offset="1" stop-color="#9EB2E5"/>
</linearGradient>
<linearGradient id="paint28_linear_475_2281" x1="221.014" y1="198.041" x2="361.626" y2="198.041" gradientUnits="userSpaceOnUse">
<stop stop-color="#49A4FF"/>
<stop offset="1" stop-color="#B8CBFC"/>
</linearGradient>
<linearGradient id="paint29_linear_475_2281" x1="291.595" y1="63.6588" x2="291.595" y2="194.871" gradientUnits="userSpaceOnUse">
<stop stop-color="#57EA80"/>
<stop offset="1" stop-color="#80FFA3" stop-opacity="0"/>
</linearGradient>
<linearGradient id="paint30_linear_475_2281" x1="28.422" y1="406.968" x2="169.046" y2="406.968" gradientUnits="userSpaceOnUse">
<stop stop-color="#60AFFF"/>
<stop offset="1" stop-color="#9EB2E5"/>
</linearGradient>
<linearGradient id="paint31_linear_475_2281" x1="30.5105" y1="379.624" x2="166.962" y2="379.624" gradientUnits="userSpaceOnUse">
<stop stop-color="#49A4FF"/>
<stop offset="1" stop-color="#60AFFF"/>
</linearGradient>
<linearGradient id="paint32_linear_475_2281" x1="28.422" y1="388.279" x2="169.052" y2="388.279" gradientUnits="userSpaceOnUse">
<stop stop-color="#60AFFF"/>
<stop offset="1" stop-color="#A8D3FF"/>
</linearGradient>
<linearGradient id="paint33_linear_475_2281" x1="28.422" y1="362.86" x2="169.046" y2="362.86" gradientUnits="userSpaceOnUse">
<stop stop-color="#60AFFF"/>
<stop offset="1" stop-color="#9EB2E5"/>
</linearGradient>
<linearGradient id="paint34_linear_475_2281" x1="30.5105" y1="335.519" x2="166.962" y2="335.519" gradientUnits="userSpaceOnUse">
<stop stop-color="#49A4FF"/>
<stop offset="1" stop-color="#60AFFF"/>
</linearGradient>
<linearGradient id="paint35_linear_475_2281" x1="28.422" y1="344.172" x2="169.052" y2="344.172" gradientUnits="userSpaceOnUse">
<stop stop-color="#60AFFF"/>
<stop offset="1" stop-color="#A7D3FF"/>
</linearGradient>
<linearGradient id="paint36_linear_475_2281" x1="28.422" y1="318.751" x2="169.046" y2="318.751" gradientUnits="userSpaceOnUse">
<stop stop-color="#60AFFF"/>
<stop offset="1" stop-color="#9EB2E5"/>
</linearGradient>
<linearGradient id="paint37_linear_475_2281" x1="30.5105" y1="291.412" x2="166.962" y2="291.412" gradientUnits="userSpaceOnUse">
<stop stop-color="#49A4FF"/>
<stop offset="1" stop-color="#60AFFF"/>
</linearGradient>
<linearGradient id="paint38_linear_475_2281" x1="28.422" y1="300.066" x2="169.052" y2="300.066" gradientUnits="userSpaceOnUse">
<stop stop-color="#60AFFF"/>
<stop offset="1" stop-color="#B9DCFF"/>
</linearGradient>
<linearGradient id="paint39_linear_475_2281" x1="28.422" y1="272.824" x2="169.046" y2="272.824" gradientUnits="userSpaceOnUse">
<stop stop-color="#60AFFF"/>
<stop offset="1" stop-color="#9EB2E5"/>
</linearGradient>
<linearGradient id="paint40_linear_475_2281" x1="30.5105" y1="245.485" x2="166.962" y2="245.485" gradientUnits="userSpaceOnUse">
<stop stop-color="#49A4FF"/>
<stop offset="1" stop-color="#49A4FF"/>
</linearGradient>
<linearGradient id="paint41_linear_475_2281" x1="28.422" y1="254.138" x2="169.052" y2="254.138" gradientUnits="userSpaceOnUse">
<stop stop-color="#60AFFF"/>
<stop offset="1" stop-color="#A5D2FF"/>
</linearGradient>
<linearGradient id="paint42_linear_475_2281" x1="28.422" y1="226.299" x2="169.046" y2="226.299" gradientUnits="userSpaceOnUse">
<stop stop-color="#60AFFF"/>
<stop offset="1" stop-color="#9EB2E5"/>
</linearGradient>
<linearGradient id="paint43_linear_475_2281" x1="28.4319" y1="193.206" x2="169.044" y2="193.206" gradientUnits="userSpaceOnUse">
<stop stop-color="#49A4FF"/>
<stop offset="1" stop-color="#B8CBFC"/>
</linearGradient>
<linearGradient id="paint44_linear_475_2281" x1="99.0122" y1="58.824" x2="99.0122" y2="190.036" gradientUnits="userSpaceOnUse">
<stop stop-color="#57EA80"/>
<stop offset="1" stop-color="#80FFA3" stop-opacity="0"/>
</linearGradient>
</defs>
</svg>
