<svg width="509" height="132" viewBox="0 0 509 132" fill="none" xmlns="http://www.w3.org/2000/svg">
<path d="M66.3427 84.904C70.8166 86.9434 74.3566 89.5173 76.9627 92.6219C79.5668 95.7265 81.2349 98.9906 81.9649 102.42C82.695 105.849 82.5847 109.277 81.6238 112.706C80.665 116.135 78.9012 119.24 76.3471 122.016C73.7867 124.792 70.4963 127.038 66.4759 128.749C62.4554 130.465 57.7527 131.321 52.3595 131.321H0V117.134H52.3595C55.8288 117.134 58.7781 116.423 61.1991 114.994C63.6202 113.571 65.2425 111.86 66.0682 109.859C66.8877 107.865 66.7483 105.744 65.6564 103.5C64.5582 101.26 62.2266 99.3246 58.6679 97.6935L16.3127 78.1271C11.9241 76.0876 8.47145 73.5787 5.961 70.6041C3.4464 67.6275 1.8012 64.5137 1.02539 61.2495C0.249587 57.9909 0.339023 54.7063 1.29786 51.4069C2.2567 48.1019 3.9747 45.1476 6.43939 42.5385C8.90407 39.9313 12.105 37.8121 16.0319 36.179C19.9629 34.546 24.5762 33.7314 29.8799 33.7314H76.892V47.9182H29.8841C26.2255 47.9182 23.2533 48.5751 20.9717 49.8797C18.6859 51.1879 17.2466 52.7615 16.6538 54.5968C16.0569 56.4321 16.3127 58.3732 17.4067 60.4144C18.5049 62.4538 20.6535 64.1722 23.8482 65.5603L66.3427 84.904Z" fill="#60AFFF"/>
<path d="M211.15 84.904C215.624 86.9434 219.164 89.5173 221.77 92.6219C224.374 95.7265 226.042 98.9906 226.772 102.42C227.502 105.849 227.392 109.277 226.431 112.706C225.473 116.135 223.709 119.24 221.155 122.016C218.594 124.792 215.304 127.038 211.283 128.749C207.263 130.465 202.56 131.321 197.167 131.321H144.81V117.134H197.169C200.638 117.134 203.588 116.423 206.009 114.994C208.43 113.571 210.052 111.86 210.878 109.859C211.697 107.865 211.558 105.744 210.466 103.5C209.368 101.26 207.036 99.3246 203.477 97.6935L161.122 78.1271C156.734 76.0876 153.281 73.5787 150.771 70.6041C148.256 67.6275 146.611 64.5137 145.835 61.2495C145.059 57.9909 145.149 54.7063 146.107 51.4069C147.066 48.1019 148.784 45.1476 151.249 42.5385C153.714 39.9313 156.915 37.8121 160.841 36.179C164.773 34.546 169.386 33.7314 174.69 33.7314H221.702V47.9182H174.69C171.031 47.9182 168.059 48.5751 165.777 49.8797C163.491 51.1879 162.052 52.7615 161.459 54.5968C160.862 56.4321 161.118 58.3732 162.212 60.4144C163.31 62.4538 165.459 64.1722 168.654 65.5603L211.15 84.904Z" fill="#60AFFF"/>
<path d="M252.34 105.27C253.573 107.638 255.239 109.694 257.342 111.449C259.438 113.201 261.909 114.584 264.742 115.604C267.571 116.625 270.587 117.131 273.788 117.131H319.765V131.318H273.788C268.305 131.318 263.184 130.442 258.434 128.691C253.681 126.939 249.548 124.551 246.029 121.535C242.51 118.519 239.727 114.971 237.668 110.896C235.611 106.821 234.583 102.457 234.583 97.8099V33.7291H250.484V97.8118C250.486 100.423 251.1 102.906 252.34 105.27Z" fill="#60AFFF"/>
<path d="M311.754 131.32L343.831 48.6506C345.565 44.247 348.398 40.6581 352.331 37.8875C356.258 35.1151 360.597 33.7271 365.349 33.7271C370.285 33.7271 374.676 35.0557 378.511 37.7038C382.348 40.3556 385.175 44.0039 387.005 48.6506L418.946 131.32H401.947L393.726 109.798H336.975L328.614 131.32H311.754ZM342.325 95.6108H388.378C385.639 88.42 382.918 81.3089 380.225 74.2777C377.525 67.2465 374.719 60.3006 371.791 53.4327C371.154 51.7162 370.262 50.3671 369.12 49.3873C367.976 48.4075 366.722 47.9138 365.349 47.9138C363.887 47.9138 362.61 48.387 361.512 49.3279C360.418 50.2687 359.549 51.5529 358.908 53.1896L342.325 95.6108Z" fill="#60AFFF"/>
<path d="M450.472 47.9159H407.705V33.7291H509V47.9159H466.366V131.32H450.472V47.9159Z" fill="#60AFFF"/>
<path d="M137.024 21.103C137.024 9.44735 126.435 0 113.371 0C100.307 0 89.7183 9.44735 89.7183 21.103C89.7183 29.5482 95.2924 36.8133 103.323 40.1869L95.8935 131.322H130.848L123.419 40.1869C131.452 36.8133 137.024 29.5482 137.024 21.103Z" fill="#60AFFF"/>
</svg>
